<svg width="159" height="48" viewBox="0 0 159 48" fill="none" xmlns="http://www.w3.org/2000/svg">
<path d="M145.036 0.00141098H13.4508C12.933 0.00141098 12.4222 0.00141098 11.9072 0.00423293C11.4741 0.00705488 11.0465 0.0155207 10.6105 0.0225756C9.67083 0.0451512 8.72124 0.103001 7.78294 0.270907C6.839 0.437403 5.96137 0.719598 5.10209 1.15559C4.25692 1.58876 3.48511 2.15033 2.81772 2.81913C2.14327 3.48652 1.58312 4.26115 1.15559 5.10632C0.716776 5.9642 0.438814 6.84606 0.273729 7.79141C0.104412 8.72548 0.0451512 9.66942 0.0211646 10.6148C0.00846586 11.0479 0.00705488 11.4811 0 11.9143C0 12.4251 0 12.9372 0 13.4551V34.5463C0 35.067 0 35.5764 0 36.0899C0.00705488 36.5273 0.00846586 36.9521 0.0211646 37.3909C0.0451512 38.3362 0.104412 39.2816 0.273729 40.2156C0.438814 41.161 0.716776 42.0471 1.15559 42.9021C1.58312 43.7431 2.14327 44.5163 2.81772 45.1795C3.48511 45.8525 4.25692 46.4141 5.10068 46.8416C5.95996 47.2818 6.83759 47.5612 7.78294 47.7319C8.71983 47.8998 9.67083 47.9548 10.6105 47.9817C11.0465 47.9915 11.4755 47.9972 11.9072 47.9972C12.4236 48 12.9344 48 13.4522 48H145.037C145.544 48 146.059 48 146.567 47.9972C146.997 47.9972 147.437 47.9915 147.867 47.9817C148.813 47.9563 149.761 47.8998 150.689 47.7319C151.635 47.5612 152.514 47.2832 153.382 46.8416C154.224 46.4126 154.996 45.8525 155.663 45.1795C156.335 44.5163 156.895 43.7431 157.329 42.9021C157.763 42.0471 158.043 41.161 158.203 40.2156C158.376 39.2816 158.431 38.3362 158.465 37.3909C158.471 36.9521 158.471 36.5288 158.471 36.0899C158.482 35.5778 158.482 35.0684 158.482 34.5463V13.4537C158.482 12.9372 158.482 12.4251 158.471 11.9129C158.471 11.4797 158.471 11.0465 158.465 10.6134C158.433 9.66801 158.378 8.72265 158.203 7.78859C158.043 6.84323 157.763 5.96137 157.329 5.1035C156.893 4.25833 156.335 3.48511 155.663 2.81631C154.996 2.14751 154.225 1.58594 153.382 1.15277C152.514 0.715365 151.635 0.43317 150.689 0.268085C149.761 0.100179 148.813 0.0423293 147.867 0.0183427C147.437 0.0112878 146.997 0.00282195 146.567 0C146.059 0.00141098 145.544 0.00141098 145.036 0.00141098Z" fill="#A6A6A6"/>
<path d="M145.036 0.918518C145.541 0.918518 146.054 0.918518 146.559 0.92134C146.907 0.924162 147.262 0.929806 147.612 0.93545L147.843 0.939683C148.59 0.958025 149.568 1.00177 150.53 1.17532C151.403 1.3277 152.201 1.59014 152.961 1.97252C153.722 2.36336 154.412 2.86567 155.014 3.46956C155.611 4.06217 156.115 4.75355 156.508 5.5183C156.891 6.27882 157.149 7.07178 157.298 7.95788C157.464 8.84679 157.514 9.77522 157.545 10.626C157.551 11.055 157.551 11.4853 157.551 11.9326C157.562 12.4377 157.562 12.9429 157.562 13.4536V34.5449C157.562 35.0585 157.562 35.5622 157.551 36.0885C157.551 36.5231 157.551 36.9436 157.545 37.357C157.514 38.2276 157.464 39.156 157.296 40.0604C157.147 40.938 156.889 41.731 156.513 42.4774C156.112 43.252 155.608 43.9406 155.008 44.5318C154.412 45.1343 153.724 45.6352 152.964 46.0218C152.215 46.4027 151.416 46.6652 150.524 46.8274C149.6 46.9954 148.649 47.0405 147.846 47.0631C147.423 47.073 146.99 47.0786 146.561 47.0786C146.056 47.0814 145.542 47.0814 145.037 47.0814H13.4508C12.9358 47.0814 12.4264 47.0814 11.9058 47.0786C11.4811 47.0786 11.0592 47.073 10.6345 47.0645C9.82743 47.0419 8.87784 46.9968 7.94519 46.8289C7.05204 46.668 6.25766 46.4042 5.51549 46.0232C4.75497 45.638 4.06641 45.1357 3.45969 44.5233C2.86426 43.9378 2.36336 43.252 1.97111 42.4816C1.59297 41.7437 1.33194 40.9493 1.17532 40.0491C1.00036 39.0882 0.956622 38.1104 0.936868 37.3626C0.928402 37.0691 0.924169 36.7827 0.921347 36.4935L0.917114 36.0885V34.5449V13.4536V11.9284L0.922758 11.5065C0.92558 11.2186 0.929813 10.9308 0.938279 10.6387C0.956622 9.89374 1.00177 8.91593 1.17814 7.948C1.33335 7.05909 1.59297 6.26612 1.97394 5.51971C2.36195 4.75355 2.86285 4.06358 3.46675 3.46674C4.06782 2.86425 4.7592 2.36195 5.5169 1.97393C6.27318 1.58873 7.06615 1.3277 7.94519 1.1739C8.91029 1.00035 9.88951 0.956614 10.6246 0.938272L10.904 0.934039C11.2412 0.928395 11.5756 0.922751 11.9114 0.92134C12.425 0.918518 12.9358 0.918518 13.4508 0.918518H145.036Z" fill="black"/>
<mask id="mask0_4851_591" style="mask-type:luminance" maskUnits="userSpaceOnUse" x="10" y="10" width="37" height="28">
<path d="M46.9361 32.53V32.9039C46.9361 33.0831 46.9361 33.2623 46.9347 33.4415C46.9333 33.5925 46.9319 33.7434 46.9276 33.8944C46.9192 34.2232 46.8994 34.5547 46.8416 34.8793C46.7823 35.2094 46.6849 35.517 46.5326 35.8162C46.383 36.1111 46.1869 36.3806 45.9526 36.6134C45.7184 36.8476 45.4489 37.0423 45.1554 37.1933C44.8563 37.3457 44.5487 37.443 44.2186 37.5023C43.894 37.5601 43.5625 37.5799 43.2337 37.5883C43.0827 37.5926 42.9317 37.594 42.7808 37.5954C42.6016 37.5968 42.4224 37.5968 42.2432 37.5968L40.1846 37.5954L42.1007 37.5968H15.4981L17.4142 37.5954L15.3556 37.5968C15.1764 37.5968 14.9972 37.5968 14.818 37.5954C14.6671 37.594 14.5161 37.5926 14.3651 37.5883C14.0364 37.5799 13.7048 37.5601 13.3803 37.5023C13.0501 37.443 12.7439 37.3457 12.4434 37.1933C12.1485 37.0437 11.879 36.8476 11.6462 36.6134C11.4119 36.3791 11.2172 36.1096 11.0663 35.8162C10.9139 35.517 10.8165 35.2094 10.7573 34.8793C10.6994 34.5547 10.6797 34.2232 10.6712 33.8944C10.667 33.7434 10.6655 33.5925 10.6641 33.4415C10.6627 33.2623 10.6627 33.0831 10.6627 32.9039V32.6104V15.3796V17.1433V15.0847C10.6627 14.9055 10.6627 14.7263 10.6641 14.5471C10.6655 14.3961 10.667 14.2452 10.6712 14.0942C10.6797 13.7654 10.6994 13.4338 10.7573 13.1093C10.8165 12.7791 10.9139 12.4716 11.0663 12.1724C11.2158 11.8775 11.4119 11.608 11.6462 11.3752C11.8804 11.1424 12.1499 10.9463 12.4448 10.7967C12.7439 10.6443 13.0515 10.547 13.3817 10.4877C13.7062 10.4299 14.0378 10.4101 14.3665 10.4017C14.5175 10.3974 14.6685 10.396 14.8195 10.3946C14.9986 10.3932 15.1778 10.3932 15.357 10.3932H17.4157H42.1021H42.2432C42.4224 10.3932 42.6016 10.3932 42.7808 10.3946C42.9317 10.396 43.0827 10.3974 43.2337 10.4017C43.5625 10.4101 43.894 10.4299 44.2186 10.4877C44.5487 10.547 44.8549 10.6443 45.1554 10.7967C45.4503 10.9463 45.7198 11.1424 45.9526 11.3766C46.1869 11.6109 46.3816 11.8804 46.5326 12.1738C46.6849 12.473 46.7823 12.7806 46.8416 13.1107C46.8994 13.4353 46.9192 13.7668 46.9276 14.0956C46.9319 14.2466 46.9333 14.3975 46.9347 14.5485C46.9361 14.7277 46.9361 14.9069 46.9361 15.0861V15.46V32.53Z" fill="white"/>
</mask>
<g mask="url(#mask0_4851_591)">
<path d="M45.7875 11.5262H11.783V35.2038H45.7875V11.5262Z" fill="#DEDBCE"/>
<path d="M45.4249 11.9044H12.1753V26.0099H45.4249V11.9044Z" fill="#40A5D9"/>
<g filter="url(#filter0_d_4851_591)">
<path fill-rule="evenodd" clip-rule="evenodd" d="M45.4235 17.9039C45.4235 17.7896 45.4235 17.6767 45.4235 17.5624C45.4235 17.4665 45.4221 17.3705 45.4193 17.2746C45.4137 17.0657 45.401 16.8555 45.3643 16.6495C45.3262 16.4407 45.2655 16.246 45.1682 16.0555C45.0736 15.8692 44.9495 15.6971 44.7999 15.5489C44.6517 15.4008 44.481 15.2766 44.2934 15.1807C44.1029 15.0833 43.9082 15.0227 43.6993 14.9846C43.4933 14.9479 43.2831 14.9352 43.0743 14.9295C42.9783 14.9267 42.8824 14.9253 42.7864 14.9253C42.6721 14.9253 42.5593 14.9253 42.445 14.9253H42.3518H16.4576H15.1525C15.0382 14.9253 14.9253 14.9253 14.811 14.9253C14.7151 14.9253 14.6191 14.9267 14.5232 14.9295C14.3143 14.9352 14.1041 14.9479 13.8981 14.9846C13.6893 15.0227 13.4946 15.0833 13.3041 15.1807C13.1178 15.2752 12.9457 15.3994 12.7975 15.5489C12.6494 15.6971 12.5252 15.8678 12.4293 16.0555C12.3319 16.246 12.2712 16.4407 12.2331 16.6495C12.1965 16.8555 12.1838 17.0657 12.1781 17.2746C12.1753 17.3705 12.1739 17.4665 12.1739 17.5624C12.1739 17.6767 12.1739 17.7896 12.1739 17.9039V19.209V18.1832V29.0322H45.4235V18.251V17.9039Z" fill="#FFB003"/>
</g>
<g filter="url(#filter1_d_4851_591)">
<path fill-rule="evenodd" clip-rule="evenodd" d="M45.4235 20.9261C45.4235 20.8118 45.4235 20.6989 45.4235 20.5846C45.4235 20.4887 45.4221 20.3927 45.4193 20.2968C45.4137 20.088 45.401 19.8777 45.3643 19.6717C45.3262 19.4629 45.2655 19.2682 45.1682 19.0777C45.0736 18.8915 44.9495 18.7193 44.7999 18.5712C44.6517 18.423 44.481 18.2988 44.2934 18.2029C44.1029 18.1055 43.9082 18.0449 43.6993 18.0068C43.4933 17.9701 43.2831 17.9574 43.0743 17.9517C42.9783 17.9489 42.8824 17.9475 42.7864 17.9475C42.6721 17.9475 42.5593 17.9475 42.445 17.9475H42.3504H16.4576H15.1525C15.0382 17.9475 14.9253 17.9475 14.811 17.9475C14.7151 17.9475 14.6191 17.9489 14.5232 17.9517C14.3143 17.9574 14.1041 17.9701 13.8981 18.0068C13.6893 18.0449 13.4946 18.1055 13.3041 18.2029C13.1178 18.2974 12.9457 18.4216 12.7975 18.5712C12.6494 18.7193 12.5252 18.89 12.4293 19.0777C12.3319 19.2682 12.2712 19.4629 12.2331 19.6717C12.1965 19.8777 12.1838 20.088 12.1781 20.2968C12.1753 20.3927 12.1739 20.4887 12.1739 20.5846C12.1739 20.6989 12.1739 20.8118 12.1739 20.9261V22.2312V21.2055V32.0544H45.4235V21.2732V20.9261Z" fill="#40C740"/>
</g>
<g filter="url(#filter2_d_4851_591)">
<path fill-rule="evenodd" clip-rule="evenodd" d="M45.4235 23.9484C45.4235 23.8341 45.4235 23.7213 45.4235 23.607C45.4235 23.511 45.4221 23.4151 45.4193 23.3191C45.4137 23.1103 45.401 22.9001 45.3643 22.6941C45.3262 22.4852 45.2655 22.2905 45.1682 22.1C45.0736 21.9138 44.9495 21.7417 44.7999 21.5935C44.6517 21.4453 44.481 21.3212 44.2934 21.2252C44.1029 21.1279 43.9082 21.0672 43.6993 21.0291C43.4933 20.9924 43.2831 20.9797 43.0743 20.9741C42.9783 20.9713 42.8824 20.9698 42.7864 20.9698C42.6721 20.9698 42.5593 20.9698 42.445 20.9698H42.3504H16.4576H15.1525C15.0382 20.9698 14.9253 20.9698 14.811 20.9698C14.7151 20.9698 14.6191 20.9713 14.5232 20.9741C14.3143 20.9797 14.1041 20.9924 13.8981 21.0291C13.6893 21.0672 13.4946 21.1279 13.3041 21.2252C13.1178 21.3198 12.9457 21.4439 12.7975 21.5935C12.6494 21.7417 12.5252 21.9124 12.4293 22.1C12.3319 22.2905 12.2712 22.4852 12.2331 22.6941C12.1965 22.9001 12.1838 23.1103 12.1781 23.3191C12.1753 23.4151 12.1739 23.511 12.1739 23.607C12.1739 23.7213 12.1739 23.8341 12.1739 23.9484V25.2536V24.2278V35.0768H45.4235V24.2955V23.9484Z" fill="#F26D5F"/>
</g>
<path fill-rule="evenodd" clip-rule="evenodd" d="M10.1604 9.88947V25.5061H12.1753V16.1867V14.8815C12.1753 14.7672 12.1753 14.6543 12.1753 14.54C12.1753 14.4441 12.1767 14.3482 12.1795 14.2522C12.1852 14.0434 12.1978 13.8331 12.2345 13.6271C12.2726 13.4183 12.3333 13.2236 12.4307 13.0331C12.5252 12.8469 12.6494 12.6747 12.7989 12.5266C12.9471 12.3784 13.1178 12.2543 13.3055 12.1583C13.4945 12.0638 13.6893 12.0017 13.8981 11.965C14.1041 11.9283 14.3143 11.9156 14.5231 11.91C14.6191 11.9072 14.715 11.9058 14.811 11.9058C14.9253 11.9058 15.0381 11.9058 15.1524 11.9058H16.4576H42.3476H42.4478C42.5621 11.9058 42.6749 11.9058 42.7892 11.9058C42.8852 11.9058 42.9811 11.9072 43.0771 11.91C43.2859 11.9156 43.4961 11.9283 43.7021 11.965C43.9109 12.0031 44.1057 12.0638 44.2961 12.1611C44.4824 12.2557 44.6545 12.3798 44.8027 12.5294C44.9508 12.6776 45.075 12.8483 45.171 13.0359C45.2683 13.2264 45.329 13.4211 45.3671 13.63C45.4038 13.836 45.4165 14.0462 45.4221 14.255C45.4249 14.351 45.4263 14.4469 45.4263 14.5429C45.4263 14.6572 45.4263 14.77 45.4263 14.8843V16.1895V25.509H47.4412V9.88947H10.1604Z" fill="#D9D6CC"/>
<g filter="url(#filter3_d_4851_591)">
<path fill-rule="evenodd" clip-rule="evenodd" d="M38.0751 23.995C37.8593 23.995 37.642 23.995 37.4261 23.9964C37.2441 23.9978 37.0621 23.9992 36.8801 24.0049C36.4836 24.0162 36.0828 24.0387 35.6906 24.1093C35.2927 24.1812 34.9216 24.2984 34.5604 24.4818C34.5138 24.5058 33.5191 24.9573 32.6245 26.3485C31.9459 27.4053 30.6252 28.5256 28.7754 28.5256C26.927 28.5256 25.6064 27.4053 24.9263 26.3485C23.9851 24.8825 22.9114 24.4423 22.989 24.4818C22.6278 24.2969 22.2567 24.1798 21.8588 24.1093C21.4665 24.0387 21.0658 24.0147 20.6693 24.0049C20.4873 24.0006 20.3053 23.9978 20.1233 23.9964C19.9074 23.995 19.6901 23.995 19.4742 23.995H10.1618V38.1005H47.4412V23.995H38.0751Z" fill="#DEDBCE"/>
</g>
</g>
<path d="M54.4707 30.5998V30.5914C54.4707 26.9821 56.5194 24.7288 59.7421 24.7288C62.248 24.7288 64.1317 26.2738 64.4858 28.5201L64.5013 28.592H62.7517L62.7052 28.434C62.327 27.1034 61.2702 26.2907 59.7421 26.2907C57.6299 26.2907 56.2753 27.9613 56.2753 30.5928V30.6012C56.2753 33.2327 57.6383 34.9202 59.7421 34.9202C61.2547 34.9202 62.303 34.1315 62.7291 32.6895L62.7531 32.6189H64.5027L64.4957 32.698C64.1415 34.9597 62.2579 36.4808 59.7435 36.4808C56.5209 36.478 54.4707 34.2091 54.4707 30.5998Z" fill="white"/>
<path d="M65.918 33.934V33.917C65.918 32.4764 67.0369 31.5931 68.9995 31.476L71.2543 31.3406V30.7198C71.2543 29.8054 70.6631 29.2537 69.6077 29.2537C68.6228 29.2537 68.0161 29.718 67.8736 30.3811L67.8581 30.4517H66.251L66.258 30.3642C66.3765 28.9377 67.614 27.8428 69.6542 27.8428C71.679 27.8428 72.9644 28.9151 72.9644 30.5772V36.2903H71.2543V34.9809H71.2232C70.7421 35.8726 69.7812 36.4384 68.6863 36.4384C67.0284 36.4384 65.918 35.4225 65.918 33.934ZM69.1491 35.0754C70.347 35.0754 71.2529 34.2641 71.2529 33.1847V32.5385L69.2267 32.6641C68.2023 32.7276 67.6351 33.1763 67.6351 33.8775V33.893C67.6365 34.6183 68.2348 35.0754 69.1491 35.0754Z" fill="white"/>
<path d="M74.9736 27.9994H76.6752V29.4174H76.7147C76.9814 28.4481 77.6756 27.8414 78.621 27.8414C78.8651 27.8414 79.0781 27.8809 79.2122 27.9049V29.488C79.0781 29.433 78.779 29.3949 78.4474 29.3949C77.3525 29.3949 76.6738 30.1116 76.6738 31.3491V36.2903H74.9722V27.9994H74.9736Z" fill="white"/>
<path d="M81.4739 34.1075V29.3554H80.2831V28.0008H81.4739V25.8406H83.2137V28.0008H84.7672V29.3554H83.2137V34.0045C83.2137 34.8483 83.5932 35.0995 84.3086 35.0995C84.4906 35.0995 84.6388 35.0839 84.7658 35.0684V36.3849C84.5682 36.4159 84.2465 36.4568 83.8994 36.4568C82.2599 36.4554 81.4739 35.7612 81.4739 34.1075Z" fill="white"/>
<path d="M85.9623 32.1759V32.1674C85.9623 29.574 87.4593 27.8414 89.7832 27.8414C92.1085 27.8414 93.535 29.5134 93.535 32.0023V32.5766H87.6639C87.695 34.1442 88.5542 35.0599 89.9102 35.0599C90.919 35.0599 91.5878 34.5393 91.8009 33.9156L91.8263 33.8535H93.4419L93.4263 33.941C93.1583 35.2575 91.8813 36.454 89.8707 36.454C87.4353 36.4554 85.9623 34.7918 85.9623 32.1759ZM87.6879 31.3716H91.8489C91.7064 29.9367 90.9035 29.2354 89.7917 29.2354C88.6897 29.2354 87.8375 29.9861 87.6879 31.3716Z" fill="white"/>
<path d="M94.8598 33.917L94.8528 33.8465H96.5375L96.5544 33.9255C96.711 34.6902 97.2797 35.1389 98.328 35.1389C99.3524 35.1389 99.9662 34.7128 99.9662 34.044V34.0356C99.9662 33.4994 99.667 33.1918 98.7767 32.9801L97.4208 32.6726C95.8447 32.3099 95.0644 31.5536 95.0644 30.3487V30.3402C95.0644 28.8587 96.3569 27.8414 98.2645 27.8414C100.227 27.8414 101.41 28.9363 101.496 30.3473L101.503 30.4404H99.9027L99.8956 30.3854C99.7926 29.6601 99.2254 29.1564 98.2645 29.1564C97.3502 29.1564 96.7745 29.591 96.7745 30.2513V30.2598C96.7745 30.772 97.1132 31.1177 98.0035 31.3321L99.351 31.6397C101.046 32.0334 101.69 32.7036 101.69 33.893V33.9015C101.69 35.4141 100.272 36.4554 98.3181 36.4554C96.2468 36.4554 95.0334 35.4296 94.8598 33.917Z" fill="white"/>
<path d="M110.499 24.9178H112.407L116.537 36.2889H114.684L113.644 33.2144H109.263L108.216 36.2889H106.365L110.499 24.9178ZM109.736 31.7978H113.163L111.47 26.8015H111.439L109.736 31.7978Z" fill="white"/>
<path d="M117.949 27.9994H119.651V29.4259H119.69C120.187 28.441 121.101 27.8414 122.282 27.8414C124.394 27.8414 125.75 29.4964 125.75 32.1448V32.1519C125.75 34.7918 124.386 36.4554 122.308 36.4554C121.134 36.4554 120.18 35.8557 119.692 34.8963H119.651V39.0473H117.949V27.9994ZM124.018 32.1519V32.1448C124.018 30.3797 123.174 29.2989 121.842 29.2989C120.55 29.2989 119.644 30.4178 119.644 32.1448V32.1519C119.644 33.8705 120.557 34.9894 121.842 34.9894C123.181 34.9894 124.018 33.9015 124.018 32.1519Z" fill="white"/>
<path d="M127.431 27.9994H129.133V29.4259H129.172C129.669 28.441 130.583 27.8414 131.764 27.8414C133.876 27.8414 135.232 29.4964 135.232 32.1448V32.1519C135.232 34.7918 133.868 36.4554 131.789 36.4554C130.615 36.4554 129.662 35.8557 129.173 34.8963H129.133V39.0473H127.431V27.9994ZM133.5 32.1519V32.1448C133.5 30.3797 132.656 29.2989 131.324 29.2989C130.031 29.2989 129.125 30.4178 129.125 32.1448V32.1519C129.125 33.8705 130.038 34.9894 131.324 34.9894C132.663 34.9894 133.5 33.9015 133.5 32.1519Z" fill="white"/>
<path d="M136.976 24.9178H138.679V36.2889H136.976V24.9178Z" fill="white"/>
<path d="M140.416 32.1759V32.1674C140.416 29.574 141.913 27.8414 144.237 27.8414C146.562 27.8414 147.989 29.5134 147.989 32.0023V32.5766H142.118C142.149 34.1442 143.008 35.0599 144.364 35.0599C145.373 35.0599 146.042 34.5393 146.255 33.9156L146.28 33.8535H147.896L147.88 33.941C147.612 35.2575 146.335 36.454 144.324 36.454C141.889 36.4554 140.416 34.7918 140.416 32.1759ZM142.142 31.3716H146.303C146.16 29.9367 145.357 29.2354 144.245 29.2354C143.143 29.2354 142.291 29.9861 142.142 31.3716Z" fill="white"/>
<path d="M57.3096 11.5164H58.3636L61.5129 20.0599H60.394L59.5361 17.6147H56.1371L55.2792 20.0599H54.1603L57.3096 11.5164ZM56.4503 16.7088H59.2215L57.8824 12.8964H57.7879L56.4503 16.7088Z" fill="white"/>
<path d="M61.7739 22.2511V21.3396H61.9277C62.6205 21.3396 62.8815 21.0969 62.8815 20.3929V13.678H63.9116V20.3745C63.9116 21.6895 63.2907 22.2525 61.9517 22.2525H61.7739V22.2511ZM62.6854 11.7351C62.6854 11.3443 63.0057 11.0254 63.3966 11.0254C63.7874 11.0254 64.1063 11.3457 64.1063 11.7351C64.1063 12.1245 63.7874 12.4462 63.3966 12.4462C63.0057 12.4462 62.6854 12.126 62.6854 11.7351Z" fill="white"/>
<path d="M65.52 16.8753V16.8626C65.52 14.8138 66.6446 13.5651 68.4619 13.5651C70.2807 13.5651 71.4038 14.8138 71.4038 16.8626V16.8753C71.4038 18.917 70.2792 20.1727 68.4619 20.1727C66.6446 20.1727 65.52 18.917 65.52 16.8753ZM70.3512 16.8753V16.8626C70.3512 15.3528 69.6697 14.4766 68.4619 14.4766C67.2541 14.4766 66.574 15.3528 66.574 16.8626V16.8753C66.574 18.378 67.2541 19.2612 68.4619 19.2612C69.6697 19.2612 70.3512 18.378 70.3512 16.8753Z" fill="white"/>
<path d="M72.9277 17.8094V13.678H73.9577V17.561C73.9577 18.7096 74.3712 19.2613 75.3899 19.2613C76.5144 19.2613 77.1127 18.5741 77.1127 17.4552V13.678H78.1427V20.0599H77.1127V19.1061H77.0182C76.7035 19.7876 76.0587 20.1714 75.1232 20.1714C73.6741 20.1728 72.9277 19.3205 72.9277 17.8094Z" fill="white"/>
<path d="M80.4496 18.402V14.5288H79.4436V13.678H80.4496V12.0258H81.5149V13.678H82.9118V14.5302H81.5149V18.1423C81.5149 18.8944 81.7759 19.1963 82.4377 19.1963C82.6211 19.1963 82.7227 19.1907 82.9118 19.1724V20.0486C82.71 20.0838 82.5153 20.1078 82.3135 20.1078C80.9999 20.1078 80.4496 19.621 80.4496 18.402Z" fill="white"/>
<path d="M84.0278 16.8922V16.8866C84.0278 14.9154 85.1524 13.5651 86.8865 13.5651C88.6206 13.5651 89.676 14.8562 89.676 16.7624V17.1659H85.0818C85.1115 18.4866 85.8395 19.2556 86.9768 19.2556C87.8403 19.2556 88.3736 18.8464 88.5444 18.4626L88.5698 18.409H89.5984L89.5871 18.457C89.3684 19.3219 88.4555 20.1741 86.9514 20.1741C85.1284 20.1727 84.0278 18.893 84.0278 16.8922ZM85.1002 16.3419H88.6276C88.5218 15.0805 87.8234 14.4837 86.8822 14.4837C85.9341 14.4823 85.2116 15.1271 85.1002 16.3419Z" fill="white"/>
<path d="M91.2577 13.678H92.2877V14.6248H92.3822C92.6249 13.956 93.2232 13.5651 94.0867 13.5651C94.2828 13.5651 94.5015 13.5891 94.6017 13.606V14.6064C94.3886 14.5712 94.1939 14.5472 93.9682 14.5472C92.9861 14.5472 92.2877 15.1694 92.2877 16.1049V20.0598H91.2577V13.678Z" fill="white"/>
<path d="M98.8798 18.2778V18.2665C98.8798 17.1293 99.7207 16.4732 101.206 16.3843L103.035 16.2714V15.6915C103.035 14.9042 102.555 14.478 101.602 14.478C100.838 14.478 100.336 14.7631 100.169 15.2597L100.162 15.2781H99.1337L99.1394 15.2428C99.3045 14.2424 100.277 13.5665 101.638 13.5665C103.196 13.5665 104.067 14.3652 104.067 15.6915V20.0613H103.036V19.1201H102.943C102.54 19.8002 101.871 20.1741 101.013 20.1741C99.7969 20.1727 98.8798 19.439 98.8798 18.2778ZM99.8801 10.7756H101.099L102.148 12.7891H101.247L99.8801 10.7756ZM101.223 19.2782C102.272 19.2782 103.035 18.591 103.035 17.6795V17.0996L101.331 17.2069C100.36 17.2661 99.9338 17.609 99.9338 18.2425V18.2538C99.9338 18.9 100.483 19.2782 101.223 19.2782Z" fill="white"/>
<path d="M109.387 11.1439H110.417V20.0599H109.387V11.1439Z" fill="white"/>
<path d="M112.889 11.5164H114.068L113.139 14.8858H112.376L112.889 11.5164Z" fill="white"/>
<path d="M114.937 18.2778V18.2665C114.937 17.1292 115.778 16.4731 117.263 16.3842L119.092 16.2714V15.6915C119.092 14.9041 118.612 14.478 117.658 14.478C116.895 14.478 116.393 14.763 116.226 15.2597L116.219 15.278H115.192L115.198 15.2428C115.363 14.2424 116.335 13.5665 117.697 13.5665C119.254 13.5665 120.125 14.3651 120.125 15.6915V20.0613H119.095V19.1201H119.002C118.598 19.8002 117.929 20.1741 117.071 20.1741C115.855 20.1727 114.937 19.439 114.937 18.2778ZM117.282 19.2782C118.33 19.2782 119.093 18.591 119.093 17.6795V17.0996L117.389 17.2068C116.418 17.2661 115.992 17.609 115.992 18.2425V18.2538C115.992 18.9 116.541 19.2782 117.282 19.2782Z" fill="white"/>
<path d="M121.99 13.678H123.02V14.6967H123.115C123.504 13.987 124.215 13.5665 125.104 13.5665C126.721 13.5665 127.779 14.8745 127.779 16.864V16.8767C127.779 18.8774 126.725 20.1741 125.104 20.1741C124.228 20.1741 123.463 19.7353 123.115 19.0552H123.02V22.1932H121.99V13.678ZM126.727 16.8753V16.8626C126.727 15.3768 126.034 14.4766 124.869 14.4766C123.707 14.4766 122.998 15.3881 122.998 16.8626V16.8753C122.998 18.3483 123.707 19.2612 124.869 19.2612C126.034 19.2612 126.727 18.361 126.727 16.8753Z" fill="white"/>
<path d="M129.374 13.678H130.404V14.6967H130.498C130.888 13.987 131.599 13.5665 132.488 13.5665C134.105 13.5665 135.163 14.8745 135.163 16.864V16.8767C135.163 18.8774 134.109 20.1741 132.488 20.1741C131.612 20.1741 130.847 19.7353 130.498 19.0552H130.404V22.1932H129.374V13.678ZM134.11 16.8753V16.8626C134.11 15.3768 133.418 14.4766 132.252 14.4766C131.091 14.4766 130.381 15.3881 130.381 16.8626V16.8753C130.381 18.3483 131.091 19.2612 132.252 19.2612C133.418 19.2612 134.11 18.361 134.11 16.8753Z" fill="white"/>
<defs>
<filter id="filter0_d_4851_591" x="9.17389" y="11.7253" width="39.2496" height="20.1069" filterUnits="userSpaceOnUse" color-interpolation-filters="sRGB">
<feFlood flood-opacity="0" result="BackgroundImageFix"/>
<feColorMatrix in="SourceAlpha" type="matrix" values="0 0 0 0 0 0 0 0 0 0 0 0 0 0 0 0 0 0 127 0" result="hardAlpha"/>
<feOffset dy="-0.2"/>
<feGaussianBlur stdDeviation="1.5"/>
<feComposite in2="hardAlpha" operator="out"/>
<feColorMatrix type="matrix" values="0 0 0 0 0 0 0 0 0 0 0 0 0 0 0 0 0 0 0.12 0"/>
<feBlend mode="normal" in2="BackgroundImageFix" result="effect1_dropShadow_4851_591"/>
<feBlend mode="normal" in="SourceGraphic" in2="effect1_dropShadow_4851_591" result="shape"/>
</filter>
<filter id="filter1_d_4851_591" x="9.17389" y="14.7475" width="39.2496" height="20.1069" filterUnits="userSpaceOnUse" color-interpolation-filters="sRGB">
<feFlood flood-opacity="0" result="BackgroundImageFix"/>
<feColorMatrix in="SourceAlpha" type="matrix" values="0 0 0 0 0 0 0 0 0 0 0 0 0 0 0 0 0 0 127 0" result="hardAlpha"/>
<feOffset dy="-0.2"/>
<feGaussianBlur stdDeviation="1.5"/>
<feComposite in2="hardAlpha" operator="out"/>
<feColorMatrix type="matrix" values="0 0 0 0 0 0 0 0 0 0 0 0 0 0 0 0 0 0 0.12 0"/>
<feBlend mode="normal" in2="BackgroundImageFix" result="effect1_dropShadow_4851_591"/>
<feBlend mode="normal" in="SourceGraphic" in2="effect1_dropShadow_4851_591" result="shape"/>
</filter>
<filter id="filter2_d_4851_591" x="9.17389" y="17.7698" width="39.2496" height="20.1069" filterUnits="userSpaceOnUse" color-interpolation-filters="sRGB">
<feFlood flood-opacity="0" result="BackgroundImageFix"/>
<feColorMatrix in="SourceAlpha" type="matrix" values="0 0 0 0 0 0 0 0 0 0 0 0 0 0 0 0 0 0 127 0" result="hardAlpha"/>
<feOffset dy="-0.2"/>
<feGaussianBlur stdDeviation="1.5"/>
<feComposite in2="hardAlpha" operator="out"/>
<feColorMatrix type="matrix" values="0 0 0 0 0 0 0 0 0 0 0 0 0 0 0 0 0 0 0.12 0"/>
<feBlend mode="normal" in2="BackgroundImageFix" result="effect1_dropShadow_4851_591"/>
<feBlend mode="normal" in="SourceGraphic" in2="effect1_dropShadow_4851_591" result="shape"/>
</filter>
<filter id="filter3_d_4851_591" x="7.1618" y="20.795" width="43.2794" height="20.1056" filterUnits="userSpaceOnUse" color-interpolation-filters="sRGB">
<feFlood flood-opacity="0" result="BackgroundImageFix"/>
<feColorMatrix in="SourceAlpha" type="matrix" values="0 0 0 0 0 0 0 0 0 0 0 0 0 0 0 0 0 0 127 0" result="hardAlpha"/>
<feOffset dy="-0.2"/>
<feGaussianBlur stdDeviation="1.5"/>
<feComposite in2="hardAlpha" operator="out"/>
<feColorMatrix type="matrix" values="0 0 0 0 0 0 0 0 0 0 0 0 0 0 0 0 0 0 0.12 0"/>
<feBlend mode="normal" in2="BackgroundImageFix" result="effect1_dropShadow_4851_591"/>
<feBlend mode="normal" in="SourceGraphic" in2="effect1_dropShadow_4851_591" result="shape"/>
</filter>
</defs>
</svg>
