<svg width="155" height="48" viewBox="0 0 155 48" fill="none" xmlns="http://www.w3.org/2000/svg">
<path d="M141.395 0.00141098H13.4508C12.933 0.00141098 12.4222 0.00141098 11.9072 0.00423293C11.4741 0.00705488 11.0465 0.0155207 10.6105 0.0225756C9.67083 0.0451512 8.72124 0.103001 7.78294 0.270907C6.839 0.437403 5.96137 0.719598 5.10209 1.15559C4.25692 1.58876 3.48511 2.15033 2.81772 2.81913C2.14327 3.48652 1.58312 4.26115 1.15559 5.10632C0.716776 5.9642 0.438814 6.84606 0.273729 7.79141C0.104412 8.72548 0.0451512 9.66942 0.0211646 10.6148C0.00846586 11.0479 0.00705488 11.4811 0 11.9143C0 12.4251 0 12.9372 0 13.4551V34.5463C0 35.067 0 35.5764 0 36.0899C0.00705488 36.5273 0.00846586 36.9521 0.0211646 37.3909C0.0451512 38.3362 0.104412 39.2816 0.273729 40.2156C0.438814 41.161 0.716776 42.0471 1.15559 42.9021C1.58312 43.7431 2.14327 44.5163 2.81772 45.1795C3.48511 45.8525 4.25692 46.4141 5.10068 46.8416C5.95996 47.2818 6.83759 47.5612 7.78294 47.7319C8.71983 47.8998 9.67083 47.9548 10.6105 47.9817C11.0465 47.9915 11.4755 47.9972 11.9072 47.9972C12.4236 48 12.9344 48 13.4522 48H141.397C141.903 48 142.418 48 142.926 47.9972C143.357 47.9972 143.797 47.9915 144.227 47.9817C145.173 47.9563 146.121 47.8998 147.049 47.7319C147.994 47.5612 148.874 47.2832 149.741 46.8416C150.584 46.4126 151.355 45.8525 152.023 45.1795C152.694 44.5163 153.255 43.7431 153.689 42.9021C154.122 42.0471 154.403 41.161 154.563 40.2156C154.736 39.2816 154.791 38.3362 154.825 37.3909C154.831 36.9521 154.831 36.5288 154.831 36.0899C154.842 35.5778 154.842 35.0684 154.842 34.5463V13.4537C154.842 12.9372 154.842 12.4251 154.831 11.9129C154.831 11.4797 154.831 11.0465 154.825 10.6134C154.793 9.66801 154.738 8.72265 154.563 7.78859C154.403 6.84323 154.122 5.96137 153.689 5.1035C153.253 4.25833 152.694 3.48511 152.023 2.81631C151.355 2.14751 150.585 1.58594 149.741 1.15277C148.874 0.715365 147.994 0.43317 147.049 0.268085C146.121 0.100179 145.173 0.0423293 144.227 0.0183427C143.797 0.0112878 143.357 0.00282195 142.926 0C142.418 0.00141098 141.903 0.00141098 141.395 0.00141098Z" fill="#A6A6A6"/>
<path d="M141.395 0.918518C141.9 0.918518 142.414 0.918518 142.919 0.92134C143.266 0.924162 143.622 0.929806 143.972 0.93545L144.203 0.939683C144.95 0.958025 145.927 1.00177 146.89 1.17532C147.763 1.3277 148.56 1.59014 149.321 1.97252C150.081 2.36336 150.771 2.86567 151.374 3.46956C151.971 4.06217 152.474 4.75355 152.868 5.5183C153.25 6.27882 153.509 7.07178 153.658 7.95788C153.823 8.84679 153.874 9.77522 153.905 10.626C153.911 11.055 153.911 11.4853 153.911 11.9326C153.922 12.4377 153.922 12.9429 153.922 13.4536V34.5449C153.922 35.0585 153.922 35.5622 153.911 36.0885C153.911 36.5231 153.911 36.9436 153.905 37.357C153.874 38.2276 153.823 39.156 153.655 40.0604C153.507 40.938 153.249 41.731 152.872 42.4774C152.471 43.252 151.968 43.9406 151.368 44.5318C150.771 45.1343 150.084 45.6352 149.324 46.0218C148.574 46.4027 147.776 46.6652 146.884 46.8274C145.96 46.9954 145.009 47.0405 144.206 47.0631C143.783 47.073 143.35 47.0786 142.921 47.0786C142.415 47.0814 141.902 47.0814 141.397 47.0814H13.4508C12.9358 47.0814 12.4264 47.0814 11.9058 47.0786C11.4811 47.0786 11.0592 47.073 10.6345 47.0645C9.82743 47.0419 8.87784 46.9968 7.94519 46.8289C7.05204 46.668 6.25766 46.4042 5.51549 46.0232C4.75497 45.638 4.06641 45.1357 3.45969 44.5233C2.86426 43.9378 2.36336 43.252 1.97111 42.4816C1.59297 41.7437 1.33194 40.9493 1.17532 40.0491C1.00036 39.0882 0.956622 38.1104 0.936868 37.3626C0.928402 37.0691 0.924169 36.7827 0.921347 36.4935L0.917114 36.0885V34.5449V13.4536V11.9284L0.922758 11.5065C0.92558 11.2186 0.929813 10.9308 0.938279 10.6387C0.956622 9.89374 1.00177 8.91593 1.17814 7.948C1.33335 7.05909 1.59297 6.26612 1.97394 5.51971C2.36195 4.75355 2.86285 4.06358 3.46675 3.46674C4.06782 2.86425 4.7592 2.36195 5.5169 1.97393C6.27318 1.58873 7.06615 1.3277 7.94519 1.1739C8.91029 1.00035 9.88951 0.958025 10.6246 0.938272L10.904 0.934039C11.2412 0.928395 11.5756 0.922751 11.9114 0.92134C12.425 0.918518 12.9358 0.918518 13.4508 0.918518H141.395Z" fill="black"/>
<mask id="mask0_2850_5082" style="mask-type:luminance" maskUnits="userSpaceOnUse" x="10" y="10" width="37" height="28">
<path d="M46.9375 32.5302V32.9041C46.9375 33.0833 46.9375 33.2625 46.9361 33.4417C46.9347 33.5926 46.9333 33.7436 46.929 33.8946C46.9206 34.2234 46.9008 34.5549 46.843 34.8795C46.7837 35.2096 46.6863 35.5172 46.534 35.8163C46.3844 36.1112 46.1883 36.3807 45.954 36.6135C45.7198 36.8478 45.4503 37.0425 45.1568 37.1935C44.8577 37.3458 44.5501 37.4432 44.22 37.5025C43.8954 37.5603 43.5639 37.5801 43.2351 37.5885C43.0841 37.5928 42.9331 37.5942 42.7822 37.5956C42.603 37.597 42.4238 37.597 42.2446 37.597L40.186 37.5956L42.1021 37.597H15.4995L17.4156 37.5956L15.357 37.597C15.1778 37.597 14.9986 37.597 14.8194 37.5956C14.6685 37.5942 14.5175 37.5928 14.3665 37.5885C14.0378 37.5801 13.7062 37.5603 13.3817 37.5025C13.0515 37.4432 12.7453 37.3458 12.4448 37.1935C12.1499 37.0439 11.8804 36.8478 11.6476 36.6135C11.4134 36.3793 11.2186 36.1098 11.0677 35.8163C10.9153 35.5172 10.8179 35.2096 10.7587 34.8795C10.7008 34.5549 10.6811 34.2234 10.6726 33.8946C10.6684 33.7436 10.6669 33.5926 10.6655 33.4417C10.6641 33.2625 10.6641 33.0833 10.6641 32.9041V32.6106V15.3798V17.1435V15.0849C10.6641 14.9057 10.6641 14.7265 10.6655 14.5473C10.6669 14.3963 10.6684 14.2453 10.6726 14.0944C10.6811 13.7656 10.7008 13.434 10.7587 13.1095C10.8179 12.7793 10.9153 12.4717 11.0677 12.1726C11.2172 11.8777 11.4134 11.6082 11.6476 11.3754C11.8818 11.1426 12.1513 10.9465 12.4462 10.7969C12.7453 10.6445 13.0529 10.5472 13.3831 10.4879C13.7076 10.4301 14.0392 10.4103 14.3679 10.4018C14.5189 10.3976 14.6699 10.3962 14.8209 10.3948C15.0001 10.3934 15.1792 10.3934 15.3584 10.3934H17.4171H42.1035H42.2446C42.4238 10.3934 42.603 10.3934 42.7822 10.3948C42.9331 10.3962 43.0841 10.3976 43.2351 10.4018C43.5639 10.4103 43.8954 10.4301 44.22 10.4879C44.5501 10.5472 44.8563 10.6445 45.1568 10.7969C45.4517 10.9465 45.7212 11.1426 45.954 11.3768C46.1883 11.611 46.383 11.8805 46.534 12.174C46.6863 12.4732 46.7837 12.7807 46.843 13.1109C46.9008 13.4354 46.9206 13.767 46.929 14.0958C46.9333 14.2467 46.9347 14.3977 46.9361 14.5487C46.9375 14.7279 46.9375 14.9071 46.9375 15.0863V15.4602V32.5302Z" fill="white"/>
</mask>
<g mask="url(#mask0_2850_5082)">
<path d="M45.7889 11.5264H11.7844V35.204H45.7889V11.5264Z" fill="#DEDBCE"/>
<path d="M45.4263 11.9045H12.1767V26.0101H45.4263V11.9045Z" fill="#40A5D9"/>
<g filter="url(#filter0_d_2850_5082)">
<path fill-rule="evenodd" clip-rule="evenodd" d="M45.4249 17.904C45.4249 17.7898 45.4249 17.6769 45.4249 17.5626C45.4249 17.4666 45.4235 17.3707 45.4207 17.2748C45.4151 17.0659 45.4024 16.8557 45.3657 16.6497C45.3276 16.4409 45.2669 16.2462 45.1696 16.0557C45.075 15.8694 44.9509 15.6973 44.8013 15.5491C44.6531 15.401 44.4824 15.2768 44.2948 15.1809C44.1043 15.0835 43.9096 15.0228 43.7007 14.9847C43.4947 14.9481 43.2845 14.9354 43.0757 14.9297C42.9797 14.9269 42.8838 14.9255 42.7878 14.9255C42.6735 14.9255 42.5607 14.9255 42.4464 14.9255H42.3533H16.459H15.1539C15.0396 14.9255 14.9267 14.9255 14.8124 14.9255C14.7165 14.9255 14.6205 14.9269 14.5246 14.9297C14.3157 14.9354 14.1055 14.9481 13.8995 14.9847C13.6907 15.0228 13.496 15.0835 13.3055 15.1809C13.1192 15.2754 12.9471 15.3996 12.7989 15.5491C12.6508 15.6973 12.5266 15.868 12.4307 16.0557C12.3333 16.2462 12.2727 16.4409 12.2346 16.6497C12.1979 16.8557 12.1852 17.0659 12.1795 17.2748C12.1767 17.3707 12.1753 17.4666 12.1753 17.5626C12.1753 17.6769 12.1753 17.7898 12.1753 17.904V19.2092V18.1834V29.0324H45.4249V18.2511V17.904Z" fill="#FFB003"/>
</g>
<g filter="url(#filter1_d_2850_5082)">
<path fill-rule="evenodd" clip-rule="evenodd" d="M45.4249 20.9263C45.4249 20.812 45.4249 20.6991 45.4249 20.5848C45.4249 20.4889 45.4235 20.3929 45.4207 20.297C45.4151 20.0881 45.4024 19.8779 45.3657 19.6719C45.3276 19.4631 45.2669 19.2684 45.1696 19.0779C45.075 18.8916 44.9509 18.7195 44.8013 18.5713C44.6531 18.4232 44.4824 18.299 44.2948 18.2031C44.1043 18.1057 43.9096 18.045 43.7007 18.007C43.4947 17.9703 43.2845 17.9576 43.0757 17.9519C42.9797 17.9491 42.8838 17.9477 42.7878 17.9477C42.6735 17.9477 42.5607 17.9477 42.4464 17.9477H42.3518H16.459H15.1539C15.0396 17.9477 14.9267 17.9477 14.8124 17.9477C14.7165 17.9477 14.6205 17.9491 14.5246 17.9519C14.3157 17.9576 14.1055 17.9703 13.8995 18.007C13.6907 18.045 13.496 18.1057 13.3055 18.2031C13.1192 18.2976 12.9471 18.4218 12.7989 18.5713C12.6508 18.7195 12.5266 18.8902 12.4307 19.0779C12.3333 19.2684 12.2727 19.4631 12.2346 19.6719C12.1979 19.8779 12.1852 20.0881 12.1795 20.297C12.1767 20.3929 12.1753 20.4889 12.1753 20.5848C12.1753 20.6991 12.1753 20.812 12.1753 20.9263V22.2314V21.2056V32.0546H45.4249V21.2734V20.9263Z" fill="#40C740"/>
</g>
<g filter="url(#filter2_d_2850_5082)">
<path fill-rule="evenodd" clip-rule="evenodd" d="M45.4249 23.9486C45.4249 23.8343 45.4249 23.7214 45.4249 23.6071C45.4249 23.5112 45.4235 23.4153 45.4207 23.3193C45.4151 23.1105 45.4024 22.9002 45.3657 22.6942C45.3276 22.4854 45.2669 22.2907 45.1696 22.1002C45.075 21.914 44.9509 21.7418 44.8013 21.5937C44.6531 21.4455 44.4824 21.3214 44.2948 21.2254C44.1043 21.1281 43.9096 21.0674 43.7007 21.0293C43.4947 20.9926 43.2845 20.9799 43.0757 20.9743C42.9797 20.9714 42.8838 20.97 42.7878 20.97C42.6735 20.97 42.5607 20.97 42.4464 20.97H42.3518H16.459H15.1539C15.0396 20.97 14.9267 20.97 14.8124 20.97C14.7165 20.97 14.6205 20.9714 14.5246 20.9743C14.3157 20.9799 14.1055 20.9926 13.8995 21.0293C13.6907 21.0674 13.496 21.1281 13.3055 21.2254C13.1192 21.32 12.9471 21.4441 12.7989 21.5937C12.6508 21.7418 12.5266 21.9126 12.4307 22.1002C12.3333 22.2907 12.2727 22.4854 12.2346 22.6942C12.1979 22.9002 12.1852 23.1105 12.1795 23.3193C12.1767 23.4153 12.1753 23.5112 12.1753 23.6071C12.1753 23.7214 12.1753 23.8343 12.1753 23.9486V25.2538V24.228V35.077H45.4249V24.2957V23.9486Z" fill="#F26D5F"/>
</g>
<path fill-rule="evenodd" clip-rule="evenodd" d="M10.1618 9.88965V25.5063H12.1767V16.1868V14.8817C12.1767 14.7674 12.1767 14.6545 12.1767 14.5402C12.1767 14.4443 12.1781 14.3483 12.1809 14.2524C12.1866 14.0436 12.1993 13.8333 12.2359 13.6273C12.274 13.4185 12.3347 13.2238 12.4321 13.0333C12.5266 12.8471 12.6508 12.6749 12.8003 12.5268C12.9485 12.3786 13.1192 12.2544 13.3069 12.1585C13.4959 12.064 13.6907 12.0019 13.8995 11.9652C14.1055 11.9285 14.3157 11.9158 14.5245 11.9102C14.6205 11.9073 14.7164 11.9059 14.8124 11.9059C14.9267 11.9059 15.0395 11.9059 15.1538 11.9059H16.459H42.349H42.4492C42.5635 11.9059 42.6763 11.9059 42.7906 11.9059C42.8866 11.9059 42.9825 11.9073 43.0785 11.9102C43.2873 11.9158 43.4975 11.9285 43.7035 11.9652C43.9124 12.0033 44.1071 12.064 44.2975 12.1613C44.4838 12.2559 44.6559 12.38 44.8041 12.5296C44.9522 12.6777 45.0764 12.8485 45.1724 13.0361C45.2697 13.2266 45.3304 13.4213 45.3685 13.6301C45.4052 13.8361 45.4179 14.0464 45.4235 14.2552C45.4263 14.3512 45.4277 14.4471 45.4277 14.543C45.4277 14.6573 45.4277 14.7702 45.4277 14.8845V16.1897V25.5092H47.4426V9.88965H10.1618Z" fill="#D9D6CC"/>
<g filter="url(#filter3_d_2850_5082)">
<path fill-rule="evenodd" clip-rule="evenodd" d="M38.0765 23.9952C37.8607 23.9952 37.6434 23.9952 37.4275 23.9966C37.2455 23.998 37.0635 23.9994 36.8815 24.0051C36.485 24.0163 36.0842 24.0389 35.692 24.1095C35.2941 24.1814 34.923 24.2985 34.5618 24.482C34.5152 24.506 33.5205 24.9575 32.6259 26.3487C31.9473 27.4055 30.6266 28.5258 28.7768 28.5258C26.9284 28.5258 25.6078 27.4055 24.9277 26.3487C23.9865 24.8827 22.9128 24.4425 22.9904 24.482C22.6292 24.2971 22.2581 24.18 21.8602 24.1095C21.4679 24.0389 21.0672 24.0149 20.6707 24.0051C20.4887 24.0008 20.3067 23.998 20.1247 23.9966C19.9088 23.9952 19.6915 23.9952 19.4756 23.9952H10.1632V38.1007H47.4426V23.9952H38.0765Z" fill="#DEDBCE"/>
</g>
</g>
<path d="M58.1746 24.9207H60.0808L64.2093 36.2889H62.3581L61.3182 33.2172H56.9372L55.8888 36.2889H54.0376L58.1746 24.9207ZM57.4098 31.7992H60.8371L59.1439 26.8043H59.1129L57.4098 31.7992Z" fill="white"/>
<path d="M65.3 28.0008H67.0017V29.4273H67.0412C67.5379 28.4424 68.4522 27.8442 69.6332 27.8442C71.7454 27.8442 73.0999 29.4993 73.0999 32.1448V32.1533C73.0999 34.7932 71.7369 36.454 69.6571 36.454C68.4832 36.454 67.5294 35.8557 67.0412 34.8948H67.0017V39.0473H65.3V28.0008ZM71.3673 32.1533V32.1448C71.3673 30.3797 70.5235 29.3017 69.1929 29.3017C67.9005 29.3017 66.9946 30.4206 66.9946 32.1448V32.1533C66.9946 33.8719 67.9089 34.9894 69.1929 34.9894C70.5305 34.9894 71.3673 33.9015 71.3673 32.1533Z" fill="white"/>
<path d="M74.7804 28.0008H76.482V29.4273H76.5215C77.0182 28.4424 77.9311 27.8442 79.1135 27.8442C81.2257 27.8442 82.5803 29.4993 82.5803 32.1448V32.1533C82.5803 34.7932 81.2173 36.454 79.1375 36.454C77.9636 36.454 77.0097 35.8557 76.5215 34.8948H76.482V39.0473H74.7804V28.0008ZM80.8462 32.1533V32.1448C80.8462 30.3797 80.0024 29.3017 78.6719 29.3017C77.3794 29.3017 76.4736 30.4206 76.4736 32.1448V32.1533C76.4736 33.8719 77.3879 34.9894 78.6719 34.9894C80.0109 34.9894 80.8462 33.9015 80.8462 32.1533Z" fill="white"/>
<path d="M84.0801 24.9207H85.7831V36.2889H84.0801V24.9207Z" fill="white"/>
<path d="M87.4382 32.1759V32.1674C87.4382 29.5755 88.9353 27.8428 91.2606 27.8428C93.5859 27.8428 95.0109 29.512 95.0109 32.0023V32.578H89.1427C89.1737 34.1456 90.033 35.0585 91.3875 35.0585C92.3964 35.0585 93.0666 34.5393 93.2797 33.917L93.3037 33.8535H94.9178L94.9023 33.941C94.6356 35.256 93.3573 36.454 91.3495 36.454C88.9127 36.454 87.4382 34.7918 87.4382 32.1759ZM89.1653 31.373H93.3248C93.1823 29.9395 92.3795 29.2382 91.269 29.2382C90.1642 29.2382 89.3134 29.986 89.1653 31.373Z" fill="white"/>
<path d="M100.421 24.9207H102.256L104.377 33.831H104.408L106.811 24.9207H108.48L110.883 33.831H110.923L113.042 24.9207H114.879L111.806 36.2889H110.113L107.67 27.7172H107.629L105.178 36.2889H103.484L100.421 24.9207Z" fill="white"/>
<path d="M115.363 33.9325V33.917C115.363 32.475 116.483 31.5931 118.444 31.4746L120.696 31.3406V30.7183C120.696 29.8054 120.105 29.2523 119.05 29.2523C118.065 29.2523 117.458 29.718 117.317 30.3797L117.3 30.4517H115.694L115.702 30.3642C115.82 28.9377 117.057 27.8428 119.098 27.8428C121.123 27.8428 122.407 28.9151 122.407 30.5758V36.2875H120.696V34.9795H120.665C120.184 35.8698 119.225 36.437 118.128 36.437C116.475 36.4384 115.363 35.4225 115.363 33.9325ZM118.593 35.0768C119.789 35.0768 120.696 34.2655 120.696 33.1847V32.5385L118.672 32.6655C117.649 32.7276 117.08 33.1763 117.08 33.8775V33.8945C117.08 34.6183 117.68 35.0768 118.593 35.0768Z" fill="white"/>
<path d="M124.27 24.9207H125.972V36.2889H124.27V24.9207Z" fill="white"/>
<path d="M128.369 24.9207H130.071V36.2889H128.369V24.9207Z" fill="white"/>
<path d="M131.567 32.1759V32.1674C131.567 29.5755 133.062 27.8428 135.387 27.8428C137.713 27.8428 139.139 29.512 139.139 32.0023V32.578H133.27C133.301 34.1456 134.16 35.0585 135.516 35.0585C136.525 35.0585 137.194 34.5393 137.407 33.917L137.432 33.8535H139.046L139.031 33.941C138.763 35.256 137.486 36.454 135.476 36.454C133.04 36.454 131.567 34.7918 131.567 32.1759ZM133.292 31.373H137.453C137.311 29.9395 136.508 29.2382 135.396 29.2382C134.293 29.2382 133.442 29.986 133.292 31.373Z" fill="white"/>
<path d="M141.298 34.1061V29.3554H140.107V27.9994H141.298V25.8406H143.038V27.9994H144.59V29.3554H143.038V34.0031C143.038 34.8469 143.417 35.0981 144.133 35.0981C144.315 35.0981 144.463 35.0811 144.59 35.067V36.382C144.392 36.4131 144.071 36.4526 143.724 36.4526C142.085 36.454 141.298 35.7612 141.298 34.1061Z" fill="white"/>
<path d="M59.5333 17.6146H56.1357L55.2778 20.0598H54.1589L57.3082 11.5178H58.3622L61.5115 20.0598H60.3926L59.5333 17.6146ZM56.4504 16.7087H59.2215L57.8825 12.8963H57.788L56.4504 16.7087Z" fill="white"/>
<path d="M62.1874 16.8682C62.1874 14.8674 63.247 13.5651 64.8696 13.5651C65.7571 13.5651 66.5092 13.9856 66.8704 14.684H66.9593V11.1439H67.978V20.0584H67.0073V19.0397H66.9127C66.5106 19.7494 65.7529 20.1699 64.8696 20.1699C63.2357 20.1713 62.1874 18.8746 62.1874 16.8682ZM63.2414 16.8682C63.2414 18.3596 63.9398 19.2542 65.1067 19.2542C66.2665 19.2542 66.9833 18.3427 66.9833 16.8682C66.9833 15.4064 66.2609 14.4822 65.1067 14.4822C63.9455 14.4822 63.2414 15.3824 63.2414 16.8682Z" fill="white"/>
<path d="M69.6204 16.8682C69.6204 14.8674 70.68 13.5651 72.3026 13.5651C73.1901 13.5651 73.9422 13.9856 74.3034 14.684H74.3923V11.1439H75.411V20.0584H74.4403V19.0397H74.3443C73.9422 19.7494 73.1845 20.1699 72.3012 20.1699C70.6673 20.1713 69.6204 18.8746 69.6204 16.8682ZM70.673 16.8682C70.673 18.3596 71.3714 19.2542 72.5383 19.2542C73.6981 19.2542 74.4149 18.3427 74.4149 16.8682C74.4149 15.4064 73.6924 14.4822 72.5383 14.4822C71.377 14.4822 70.673 15.3824 70.673 16.8682Z" fill="white"/>
<path d="M82.2233 12.0257V13.6779H83.6455V14.5302H82.2233V18.1423C82.2233 18.8943 82.5083 19.2132 83.1715 19.2132C83.3549 19.2132 83.4551 19.2076 83.6455 19.1892V20.0471C83.4424 20.0824 83.2491 20.1064 83.0473 20.1064C81.7337 20.1064 81.206 19.621 81.206 18.4019V14.5302H80.1774V13.6779H81.206V12.0257H82.2233Z" fill="white"/>
<path d="M84.7601 16.8682C84.7601 14.8138 85.8861 13.5651 87.7034 13.5651C89.5208 13.5651 90.6453 14.8138 90.6453 16.8682C90.6453 18.9155 89.5208 20.1713 87.7034 20.1713C85.8861 20.1713 84.7601 18.9155 84.7601 16.8682ZM89.5913 16.8682C89.5913 15.3528 88.9098 14.4823 87.702 14.4823C86.4942 14.4823 85.8127 15.3528 85.8127 16.8682C85.8127 18.378 86.4928 19.2542 87.702 19.2542C88.9098 19.2542 89.5913 18.378 89.5913 16.8682Z" fill="white"/>
<defs>
<filter id="filter0_d_2850_5082" x="9.17529" y="11.7255" width="39.2496" height="20.1069" filterUnits="userSpaceOnUse" color-interpolation-filters="sRGB">
<feFlood flood-opacity="0" result="BackgroundImageFix"/>
<feColorMatrix in="SourceAlpha" type="matrix" values="0 0 0 0 0 0 0 0 0 0 0 0 0 0 0 0 0 0 127 0" result="hardAlpha"/>
<feOffset dy="-0.2"/>
<feGaussianBlur stdDeviation="1.5"/>
<feComposite in2="hardAlpha" operator="out"/>
<feColorMatrix type="matrix" values="0 0 0 0 0 0 0 0 0 0 0 0 0 0 0 0 0 0 0.12 0"/>
<feBlend mode="normal" in2="BackgroundImageFix" result="effect1_dropShadow_2850_5082"/>
<feBlend mode="normal" in="SourceGraphic" in2="effect1_dropShadow_2850_5082" result="shape"/>
</filter>
<filter id="filter1_d_2850_5082" x="9.17529" y="14.7477" width="39.2496" height="20.1069" filterUnits="userSpaceOnUse" color-interpolation-filters="sRGB">
<feFlood flood-opacity="0" result="BackgroundImageFix"/>
<feColorMatrix in="SourceAlpha" type="matrix" values="0 0 0 0 0 0 0 0 0 0 0 0 0 0 0 0 0 0 127 0" result="hardAlpha"/>
<feOffset dy="-0.2"/>
<feGaussianBlur stdDeviation="1.5"/>
<feComposite in2="hardAlpha" operator="out"/>
<feColorMatrix type="matrix" values="0 0 0 0 0 0 0 0 0 0 0 0 0 0 0 0 0 0 0.12 0"/>
<feBlend mode="normal" in2="BackgroundImageFix" result="effect1_dropShadow_2850_5082"/>
<feBlend mode="normal" in="SourceGraphic" in2="effect1_dropShadow_2850_5082" result="shape"/>
</filter>
<filter id="filter2_d_2850_5082" x="9.17529" y="17.77" width="39.2496" height="20.1069" filterUnits="userSpaceOnUse" color-interpolation-filters="sRGB">
<feFlood flood-opacity="0" result="BackgroundImageFix"/>
<feColorMatrix in="SourceAlpha" type="matrix" values="0 0 0 0 0 0 0 0 0 0 0 0 0 0 0 0 0 0 127 0" result="hardAlpha"/>
<feOffset dy="-0.2"/>
<feGaussianBlur stdDeviation="1.5"/>
<feComposite in2="hardAlpha" operator="out"/>
<feColorMatrix type="matrix" values="0 0 0 0 0 0 0 0 0 0 0 0 0 0 0 0 0 0 0.12 0"/>
<feBlend mode="normal" in2="BackgroundImageFix" result="effect1_dropShadow_2850_5082"/>
<feBlend mode="normal" in="SourceGraphic" in2="effect1_dropShadow_2850_5082" result="shape"/>
</filter>
<filter id="filter3_d_2850_5082" x="7.16321" y="20.7952" width="43.2794" height="20.1055" filterUnits="userSpaceOnUse" color-interpolation-filters="sRGB">
<feFlood flood-opacity="0" result="BackgroundImageFix"/>
<feColorMatrix in="SourceAlpha" type="matrix" values="0 0 0 0 0 0 0 0 0 0 0 0 0 0 0 0 0 0 127 0" result="hardAlpha"/>
<feOffset dy="-0.2"/>
<feGaussianBlur stdDeviation="1.5"/>
<feComposite in2="hardAlpha" operator="out"/>
<feColorMatrix type="matrix" values="0 0 0 0 0 0 0 0 0 0 0 0 0 0 0 0 0 0 0.12 0"/>
<feBlend mode="normal" in2="BackgroundImageFix" result="effect1_dropShadow_2850_5082"/>
<feBlend mode="normal" in="SourceGraphic" in2="effect1_dropShadow_2850_5082" result="shape"/>
</filter>
</defs>
</svg>
