<svg width="174" height="48" viewBox="0 0 174 48" fill="none" xmlns="http://www.w3.org/2000/svg">
<g clip-path="url(#clip0_2850_5081)">
<path d="M149.673 0.43634H24C10.9862 0.43634 0.436401 10.986 0.436401 23.9996C0.436401 37.0132 10.9862 47.5629 24 47.5629H149.673C162.687 47.5629 173.236 37.0132 173.236 23.9996C173.236 10.986 162.687 0.43634 149.673 0.43634Z" fill="#1F1F1F"/>
<path d="M49.7455 20.7627H18.3273V15.8359C18.3273 13.1613 20.6332 10.909 23.3715 10.909H44.7013C47.4395 10.909 49.7455 13.1613 49.7455 15.8359V20.7627Z" fill="#34A853"/>
<path d="M49.7455 25.3087H18.3273V20.0724C18.3273 17.2299 20.6332 14.8361 23.3715 14.8361H44.7013C47.4395 14.8361 49.7455 17.2299 49.7455 20.0724V25.3087Z" fill="#FBBC04"/>
<path d="M49.7455 29.6723H18.3273V24.436C18.3273 21.5935 20.6332 19.1997 23.3715 19.1997H44.7013C47.4395 19.1997 49.7455 21.5935 49.7455 24.436V29.6723Z" fill="#EA4335"/>
<path d="M18.3273 22.0281L38.2685 26.5327C40.5639 27.0957 43.1462 26.5327 45.0112 25.125L49.7455 21.7465V32.3041C49.7455 34.9787 47.4501 37.0902 44.7243 37.0902H23.3484C20.6226 37.0902 18.3273 34.9787 18.3273 32.3041V22.0281Z" fill="url(#paint0_linear_2850_5081)"/>
<path d="M60.3884 18.7634L63.4517 10.6401H64.8699L67.9445 18.7634H66.5717L65.8229 16.6758H62.51L61.7612 18.7634H60.3884ZM63.8261 13.034L62.9298 15.5186H65.4031L64.5068 13.034L64.2005 12.1037H64.1324L63.8261 13.034ZM71.1398 18.9449C70.6179 18.9449 70.1453 18.8163 69.7216 18.5591C69.3057 18.2944 68.9728 17.9314 68.7232 17.47C68.4812 17.0011 68.3602 16.4679 68.3602 15.8703C68.3602 15.2728 68.4812 14.7434 68.7232 14.282C68.9728 13.8206 69.3057 13.4575 69.7216 13.1928C70.1453 12.9281 70.6179 12.7957 71.1398 12.7957C71.5861 12.7957 71.968 12.8941 72.2857 13.0907C72.611 13.2873 72.8492 13.5105 73.0005 13.7601H73.0685L73.0005 12.9546V10.6401H74.2144V18.7634H73.0685V17.9919H73.0005C72.8492 18.2415 72.611 18.4646 72.2857 18.6612C71.968 18.8504 71.5861 18.9449 71.1398 18.9449ZM71.3213 17.8217C71.6239 17.8217 71.9076 17.7423 72.1723 17.5834C72.4445 17.4246 72.6601 17.2015 72.8189 16.9141C72.9854 16.6191 73.0685 16.2711 73.0685 15.8703C73.0685 15.4695 72.9854 15.1253 72.8189 14.8379C72.6601 14.5429 72.4445 14.316 72.1723 14.1572C71.9076 13.9983 71.6239 13.9189 71.3213 13.9189C71.0189 13.9189 70.7352 13.9983 70.4704 14.1572C70.2057 14.316 69.9902 14.5429 69.8237 14.8379C69.6574 15.1253 69.5741 15.4695 69.5741 15.8703C69.5741 16.2711 69.6574 16.6191 69.8237 16.9141C69.9902 17.2015 70.2057 17.4246 70.4704 17.5834C70.7352 17.7423 71.0189 17.8217 71.3213 17.8217ZM78.0756 18.9449C77.5538 18.9449 77.081 18.8163 76.6575 18.5591C76.2414 18.2944 75.9087 17.9314 75.6591 17.47C75.4171 17.0011 75.296 16.4679 75.296 15.8703C75.296 15.2728 75.4171 14.7434 75.6591 14.282C75.9087 13.8206 76.2414 13.4575 76.6575 13.1928C77.081 12.9281 77.5538 12.7957 78.0756 12.7957C78.5219 12.7957 78.9039 12.8941 79.2215 13.0907C79.5468 13.2873 79.7851 13.5105 79.9363 13.7601H80.0044L79.9363 12.9546V10.6401H81.1503V18.7634H80.0044V17.9919H79.9363C79.7851 18.2415 79.5468 18.4646 79.2215 18.6612C78.9039 18.8504 78.5219 18.9449 78.0756 18.9449ZM78.2572 17.8217C78.5597 17.8217 78.8434 17.7423 79.1081 17.5834C79.3804 17.4246 79.5959 17.2015 79.7548 16.9141C79.9212 16.6191 80.0044 16.2711 80.0044 15.8703C80.0044 15.4695 79.9212 15.1253 79.7548 14.8379C79.5959 14.5429 79.3804 14.316 79.1081 14.1572C78.8434 13.9983 78.5597 13.9189 78.2572 13.9189C77.9546 13.9189 77.671 13.9983 77.4063 14.1572C77.1416 14.316 76.926 14.5429 76.7596 14.8379C76.5931 15.1253 76.51 15.4695 76.51 15.8703C76.51 16.2711 76.5931 16.6191 76.7596 16.9141C76.926 17.2015 77.1416 17.4246 77.4063 17.5834C77.671 17.7423 77.9546 17.8217 78.2572 17.8217ZM85.8542 17.0843V14.0437H84.8444V12.9773H85.8542V11.3435H87.0795V12.9773H88.4981V14.0437H87.0795V16.8233C87.0795 17.1107 87.1362 17.3301 87.2497 17.4813C87.3705 17.6326 87.5713 17.7082 87.8514 17.7082C87.9945 17.7082 88.1159 17.6893 88.2145 17.6515C88.3201 17.6137 88.4257 17.5608 88.5321 17.4927V18.6839C88.403 18.7369 88.2668 18.7785 88.1237 18.8087C87.9797 18.839 87.8095 18.8541 87.6132 18.8541C87.0757 18.8541 86.6484 18.699 86.3307 18.389C86.013 18.0713 85.8542 17.6364 85.8542 17.0843ZM92.1749 18.9449C91.5771 18.9449 91.0517 18.8087 90.5979 18.5364C90.1441 18.2642 89.788 17.8974 89.5314 17.436C89.274 16.9746 89.1457 16.4527 89.1457 15.8703C89.1457 15.2955 89.274 14.7774 89.5314 14.316C89.788 13.8471 90.1441 13.4765 90.5979 13.2042C91.0517 12.9319 91.5771 12.7957 92.1749 12.7957C92.7649 12.7957 93.2868 12.9319 93.7406 13.2042C94.1944 13.4765 94.5496 13.8471 94.8071 14.316C95.0636 14.7774 95.1928 15.2955 95.1928 15.8703C95.1928 16.4527 95.0636 16.9746 94.8071 17.436C94.5496 17.8974 94.1944 18.2642 93.7406 18.5364C93.2868 18.8087 92.7649 18.9449 92.1749 18.9449ZM92.1749 17.8217C92.4926 17.8217 92.7876 17.746 93.0598 17.5948C93.3321 17.436 93.5512 17.2128 93.7179 16.9254C93.8916 16.6304 93.9788 16.2787 93.9788 15.8703C93.9788 15.4619 93.8916 15.1139 93.7179 14.8265C93.5512 14.5316 93.3321 14.3084 93.0598 14.1572C92.7876 13.9983 92.4926 13.9189 92.1749 13.9189C91.8572 13.9189 91.5579 13.9983 91.2786 14.1572C91.0063 14.3084 90.7829 14.5316 90.6092 14.8265C90.4425 15.1139 90.3596 15.4619 90.3596 15.8703C90.3596 16.2787 90.4425 16.6304 90.6092 16.9254C90.7829 17.2128 91.0063 17.436 91.2786 17.5948C91.5579 17.746 91.8572 17.8217 92.1749 17.8217Z" fill="white"/>
<path d="M66.4495 36.455C65.6879 36.455 64.9708 36.3165 64.2982 36.0396C63.6356 35.7626 63.047 35.3769 62.5327 34.8823C62.0184 34.3779 61.6128 33.7894 61.3161 33.1168C61.0293 32.4344 60.8859 31.6975 60.8859 30.9063C60.8859 30.115 61.0293 29.3831 61.3161 28.7105C61.6128 28.028 62.0134 27.4396 62.5179 26.945C63.0322 26.4406 63.6256 26.0499 64.2982 25.773C64.9708 25.496 65.6879 25.3575 66.4495 25.3575C67.2605 25.3575 68.0073 25.5009 68.6898 25.7878C69.3821 26.0747 69.9607 26.4752 70.4256 26.9895L69.2981 28.1022C68.9519 27.7165 68.5365 27.4198 68.0518 27.2121C67.5771 27.0044 67.043 26.9005 66.4495 26.9005C65.7472 26.9005 65.0994 27.0687 64.5059 27.4049C63.9125 27.7313 63.4327 28.1962 63.0668 28.7995C62.7107 29.393 62.5327 30.0952 62.5327 30.9063C62.5327 31.7173 62.7157 32.4245 63.0816 33.0278C63.4476 33.6213 63.9273 34.0862 64.5208 34.4224C65.1142 34.7488 65.7621 34.912 66.4643 34.912C67.1073 34.912 67.6908 34.7933 68.215 34.5559C68.7393 34.3087 69.1596 33.9625 69.4761 33.5174C69.8025 33.0723 70.0004 32.5382 70.0696 31.9151H66.4347V30.476H71.5977C71.6571 30.7431 71.6867 31.0249 71.6867 31.3217V31.3365C71.6867 32.3652 71.4592 33.2652 71.0043 34.0367C70.5592 34.7983 69.941 35.3917 69.1497 35.817C68.3584 36.2423 67.4584 36.455 66.4495 36.455ZM76.464 36.455C75.6825 36.455 74.9952 36.2769 74.4017 35.9209C73.8083 35.5648 73.3433 35.0851 73.0071 34.4818C72.6707 33.8785 72.5026 33.196 72.5026 32.4344C72.5026 31.6827 72.6707 31.0051 73.0071 30.4018C73.3433 29.7886 73.8083 29.304 74.4017 28.9479C74.9952 28.5918 75.6825 28.4138 76.464 28.4138C77.2355 28.4138 77.9179 28.5918 78.5114 28.9479C79.1048 29.304 79.5696 29.7886 79.906 30.4018C80.2423 31.0051 80.4104 31.6827 80.4104 32.4344C80.4104 33.196 80.2423 33.8785 79.906 34.4818C79.5696 35.0851 79.1048 35.5648 78.5114 35.9209C77.9179 36.2769 77.2355 36.455 76.464 36.455ZM76.464 34.9862C76.8794 34.9862 77.2651 34.8873 77.6212 34.6895C77.9773 34.4818 78.2641 34.19 78.4817 33.8141C78.7091 33.4284 78.8229 32.9685 78.8229 32.4344C78.8229 31.9003 78.7091 31.4453 78.4817 31.0695C78.2641 30.6837 77.9773 30.392 77.6212 30.1941C77.2651 29.9864 76.8794 29.8826 76.464 29.8826C76.0485 29.8826 75.6578 29.9864 75.2919 30.1941C74.9358 30.392 74.644 30.6837 74.4165 31.0695C74.1989 31.4453 74.0901 31.9003 74.0901 32.4344C74.0901 32.9685 74.1989 33.4284 74.4165 33.8141C74.644 34.19 74.9358 34.4818 75.2919 34.6895C75.6578 34.8873 76.0485 34.9862 76.464 34.9862ZM85.4469 36.455C84.6655 36.455 83.9781 36.2769 83.3846 35.9209C82.7911 35.5648 82.3263 35.0851 81.99 34.4818C81.6537 33.8785 81.4855 33.196 81.4855 32.4344C81.4855 31.6827 81.6537 31.0051 81.99 30.4018C82.3263 29.7886 82.7911 29.304 83.3846 28.9479C83.9781 28.5918 84.6655 28.4138 85.4469 28.4138C86.2183 28.4138 86.9008 28.5918 87.4944 28.9479C88.0879 29.304 88.5531 29.7886 88.8891 30.4018C89.2251 31.0051 89.3935 31.6827 89.3935 32.4344C89.3935 33.196 89.2251 33.8785 88.8891 34.4818C88.5531 35.0851 88.0879 35.5648 87.4944 35.9209C86.9008 36.2769 86.2183 36.455 85.4469 36.455ZM85.4469 34.9862C85.8623 34.9862 86.248 34.8873 86.6041 34.6895C86.9602 34.4818 87.247 34.19 87.4648 33.8141C87.6926 33.4284 87.806 32.9685 87.806 32.4344C87.806 31.9003 87.6926 31.4453 87.4648 31.0695C87.247 30.6837 86.9602 30.392 86.6041 30.1941C86.248 29.9864 85.8623 29.8826 85.4469 29.8826C85.0314 29.8826 84.6408 29.9864 84.2748 30.1941C83.9187 30.392 83.627 30.6837 83.3994 31.0695C83.1819 31.4453 83.073 31.9003 83.073 32.4344C83.073 32.9685 83.1819 33.4284 83.3994 33.8141C83.627 34.19 83.9187 34.4818 84.2748 34.6895C84.6408 34.8873 85.0314 34.9862 85.4469 34.9862ZM94.2816 39.6596C93.6184 39.6596 93.045 39.5507 92.5606 39.3332C92.0859 39.1255 91.7001 38.8534 91.4034 38.5172C91.1067 38.1908 90.8937 37.8545 90.7654 37.5083L92.2491 36.8852C92.407 37.2808 92.6592 37.6023 93.0057 37.8496C93.3618 38.1068 93.7868 38.2353 94.2816 38.2353C94.9737 38.2353 95.5174 38.0276 95.9136 37.6122C96.3186 37.1968 96.5219 36.6083 96.5219 35.8467V35.1197H96.4329C96.1955 35.4758 95.8639 35.7626 95.4389 35.9802C95.0235 36.1879 94.5487 36.2918 94.0146 36.2918C93.3714 36.2918 92.7832 36.1286 92.2491 35.8022C91.715 35.4758 91.2847 35.0208 90.9583 34.4373C90.6319 33.8438 90.4687 33.1515 90.4687 32.3602C90.4687 31.559 90.6319 30.8667 90.9583 30.2831C91.2847 29.6897 91.715 29.2298 92.2491 28.9034C92.7832 28.577 93.3714 28.4138 94.0146 28.4138C94.5487 28.4138 95.0235 28.5226 95.4389 28.7402C95.8639 28.9577 96.1955 29.2446 96.4329 29.6007H96.5219V28.6512H98.0501V35.817C98.0501 36.638 97.8869 37.3353 97.5605 37.9089C97.2437 38.4825 96.8038 38.9178 96.2401 39.2145C95.6763 39.5112 95.0235 39.6596 94.2816 39.6596ZM94.2965 34.8378C94.6918 34.8378 95.0575 34.7438 95.3944 34.5559C95.7304 34.3581 96.0027 34.0762 96.2104 33.7103C96.4181 33.3344 96.5219 32.8844 96.5219 32.3602C96.5219 31.8162 96.4181 31.3612 96.2104 30.9953C96.0027 30.6194 95.7304 30.3375 95.3944 30.1496C95.0575 29.9617 94.6918 29.8677 94.2965 29.8677C93.9003 29.8677 93.5294 29.9666 93.1838 30.1644C92.8469 30.3523 92.5755 30.6293 92.3678 30.9953C92.16 31.3612 92.0562 31.8162 92.0562 32.3602C92.0562 32.8943 92.16 33.3492 92.3678 33.7251C92.5755 34.0911 92.8469 34.368 93.1838 34.5559C93.5294 34.7438 93.9003 34.8378 94.2965 34.8378ZM99.9395 36.2176V25.5949H101.542V36.2176H99.9395ZM106.815 36.455C106.073 36.455 105.411 36.2819 104.827 35.9357C104.244 35.5895 103.784 35.1147 103.447 34.5114C103.121 33.9081 102.957 33.2207 102.957 32.4492C102.957 31.7272 103.116 31.0596 103.432 30.4463C103.749 29.8331 104.189 29.3435 104.753 28.9776C105.327 28.6017 105.984 28.4138 106.726 28.4138C107.508 28.4138 108.17 28.582 108.714 28.9182C109.268 29.2545 109.689 29.7144 109.975 30.298C110.262 30.8816 110.405 31.5392 110.405 32.2712C110.405 32.38 110.401 32.4789 110.39 32.5679C110.39 32.6569 110.386 32.7261 110.376 32.7756H104.53C104.61 33.5273 104.871 34.091 105.316 34.4669C105.772 34.8428 106.286 35.0307 106.859 35.0307C107.374 35.0307 107.799 34.917 108.135 34.6895C108.472 34.4521 108.739 34.1603 108.936 33.8141L110.257 34.4521C109.931 35.0455 109.485 35.5302 108.922 35.906C108.358 36.272 107.656 36.455 106.815 36.455ZM106.741 29.7787C106.207 29.7787 105.752 29.9419 105.376 30.2683C105 30.5947 104.748 31.0299 104.619 31.5739H108.818C108.799 31.3167 108.714 31.0496 108.566 30.7727C108.417 30.4958 108.19 30.2633 107.883 30.0754C107.586 29.8776 107.206 29.7787 106.741 29.7787ZM116.927 36.2176L114.079 25.5949H115.889L117.58 32.4937L117.758 33.4136H117.847L118.07 32.4937L120.206 25.5949H121.838L123.885 32.4937L124.108 33.3987H124.197L124.375 32.4937L126.066 25.5949H127.862L125.058 36.2176H123.336L121.304 29.1704L121.067 28.1764H120.978L120.725 29.1704L118.604 36.2176H116.927ZM130.841 36.455C130.297 36.455 129.812 36.3511 129.387 36.1434C128.962 35.9258 128.63 35.6241 128.393 35.2384C128.156 34.8527 128.037 34.4126 128.037 33.918C128.037 33.3839 128.176 32.9289 128.452 32.5531C128.74 32.1673 129.12 31.8756 129.595 31.6777C130.07 31.4799 130.594 31.381 131.167 31.381C131.642 31.381 132.058 31.4255 132.414 31.5145C132.779 31.6036 133.057 31.6975 133.245 31.7964V31.3958C133.245 30.9013 133.067 30.5057 132.71 30.209C132.354 29.9122 131.894 29.7639 131.331 29.7639C130.945 29.7639 130.579 29.8529 130.233 30.0309C129.886 30.1991 129.61 30.4315 129.402 30.7282L128.304 29.8826C128.63 29.4276 129.061 29.0715 129.595 28.8144C130.139 28.5473 130.732 28.4138 131.375 28.4138C132.473 28.4138 133.319 28.6858 133.912 29.2298C134.506 29.7639 134.802 30.5155 134.802 31.4849V36.2176H133.245V35.2829H133.156C132.957 35.5895 132.661 35.8615 132.265 36.0989C131.87 36.3363 131.395 36.455 130.841 36.455ZM131.123 35.1494C131.538 35.1494 131.904 35.0505 132.221 34.8527C132.538 34.6548 132.785 34.3977 132.963 34.0812C133.15 33.7548 133.245 33.4037 133.245 33.0278C133.017 32.8993 132.75 32.7954 132.443 32.7163C132.137 32.6272 131.811 32.5827 131.464 32.5827C130.811 32.5827 130.346 32.7163 130.07 32.9833C129.793 33.2405 129.654 33.5569 129.654 33.9328C129.654 34.2889 129.788 34.5806 130.055 34.8082C130.322 35.0357 130.678 35.1494 131.123 35.1494ZM136.581 36.2176V25.5949H138.183V36.2176H136.581ZM140.088 36.2176V25.5949H141.69V36.2176H140.088ZM146.963 36.455C146.221 36.455 145.559 36.2819 144.975 35.9357C144.392 35.5895 143.932 35.1147 143.595 34.5114C143.269 33.9081 143.106 33.2207 143.106 32.4492C143.106 31.7272 143.264 31.0596 143.58 30.4463C143.897 29.8331 144.337 29.3435 144.901 28.9776C145.475 28.6017 146.132 28.4138 146.874 28.4138C147.656 28.4138 148.318 28.582 148.862 28.9182C149.416 29.2545 149.837 29.7144 150.123 30.298C150.41 30.8816 150.553 31.5392 150.553 32.2712C150.553 32.38 150.549 32.4789 150.539 32.5679C150.539 32.6569 150.534 32.7261 150.524 32.7756H144.678C144.758 33.5273 145.019 34.091 145.464 34.4669C145.92 34.8428 146.434 35.0307 147.007 35.0307C147.522 35.0307 147.947 34.917 148.283 34.6895C148.62 34.4521 148.887 34.1603 149.085 33.8141L150.405 34.4521C150.079 35.0455 149.634 35.5302 149.07 35.906C148.506 36.272 147.804 36.455 146.963 36.455ZM146.889 29.7787C146.355 29.7787 145.9 29.9419 145.524 30.2683C145.149 30.5947 144.896 31.0299 144.767 31.5739H148.966C148.947 31.3167 148.862 31.0496 148.714 30.7727C148.565 30.4958 148.338 30.2633 148.031 30.0754C147.734 29.8776 147.354 29.7787 146.889 29.7787ZM152.624 34.0218V30.0458H151.304V28.6512H152.624V26.5148H154.227V28.6512H156.081V30.0458H154.227V33.6806C154.227 34.0565 154.301 34.3433 154.449 34.5411C154.607 34.739 154.869 34.8378 155.236 34.8378C155.423 34.8378 155.581 34.8131 155.71 34.7636C155.848 34.7142 155.987 34.645 156.126 34.5559V36.1137C155.957 36.1829 155.779 36.2374 155.592 36.2769C155.403 36.3165 155.181 36.3363 154.924 36.3363C154.221 36.3363 153.663 36.1335 153.247 35.728C152.832 35.3126 152.624 34.7438 152.624 34.0218Z" fill="white"/>
<path d="M149.673 0.43634H24C10.9862 0.43634 0.436401 10.986 0.436401 23.9996C0.436401 37.0132 10.9862 47.5629 24 47.5629H149.673C162.687 47.5629 173.236 37.0132 173.236 23.9996C173.236 10.986 162.687 0.43634 149.673 0.43634Z" stroke="#747775"/>
</g>
<defs>
<linearGradient id="paint0_linear_2850_5081" x1="32.539" y1="29.7113" x2="16.3921" y2="48.6302" gradientUnits="userSpaceOnUse">
<stop stop-color="#4285F4"/>
<stop offset="1" stop-color="#1B74E8"/>
</linearGradient>
<clipPath id="clip0_2850_5081">
<rect width="173.673" height="47.9992" fill="white"/>
</clipPath>
</defs>
</svg>
