<svg width="174" height="48" viewBox="0 0 174 48" fill="none" xmlns="http://www.w3.org/2000/svg">
<g clip-path="url(#clip0_4851_582)">
<path d="M149.673 0.43634H24C10.9862 0.43634 0.436401 10.9861 0.436401 24C0.436401 37.0138 10.9862 47.5636 24 47.5636H149.673C162.687 47.5636 173.236 37.0138 173.236 24C173.236 10.9861 162.687 0.43634 149.673 0.43634Z" fill="#1F1F1F"/>
<path d="M49.7455 20.7631H18.3273V15.8362C18.3273 13.1615 20.6332 10.9092 23.3715 10.9092H44.7013C47.4395 10.9092 49.7455 13.1615 49.7455 15.8362V20.7631Z" fill="#34A853"/>
<path d="M49.7455 25.3091H18.3273V20.0727C18.3273 17.2302 20.6332 14.8364 23.3715 14.8364H44.7013C47.4395 14.8364 49.7455 17.2302 49.7455 20.0727V25.3091Z" fill="#FBBC04"/>
<path d="M49.7455 29.6727H18.3273V24.4364C18.3273 21.5938 20.6332 19.2 23.3715 19.2H44.7013C47.4395 19.2 49.7455 21.5938 49.7455 24.4364V29.6727Z" fill="#EA4335"/>
<path d="M18.3273 22.0284L38.2685 26.5331C40.5639 27.0962 43.1462 26.5331 45.0112 25.1254L49.7455 21.7469V32.3046C49.7455 34.9793 47.4501 37.0908 44.7243 37.0908H23.3484C20.6226 37.0908 18.3273 34.9793 18.3273 32.3046V22.0284Z" fill="url(#paint0_linear_4851_582)"/>
<path d="M60.3884 18.7636L63.4517 10.6403H64.8699L67.9445 18.7636H66.5717L65.8229 16.6761H62.51L61.7612 18.7636H60.3884ZM63.8261 13.0342L62.9298 15.5188H65.4031L64.5068 13.0342L64.2005 12.1038H64.1324L63.8261 13.0342ZM69.5362 12.1265C69.3093 12.1265 69.1126 12.0471 68.9462 11.8883C68.7874 11.7219 68.708 11.5252 68.708 11.2983C68.708 11.0714 68.7874 10.8785 68.9462 10.7197C69.1126 10.5609 69.3093 10.4814 69.5362 10.4814C69.7631 10.4814 69.956 10.5609 70.1148 10.7197C70.2811 10.8785 70.3644 11.0714 70.3644 11.2983C70.3644 11.5252 70.2811 11.7219 70.1148 11.8883C69.956 12.0471 69.7631 12.1265 69.5362 12.1265ZM68.4357 21.3277C68.2012 21.3277 67.9894 21.3013 67.8003 21.2483V20.0684C67.8759 20.1137 67.9629 20.1478 68.0613 20.1705C68.152 20.2007 68.2428 20.2158 68.3336 20.2158C68.5529 20.2158 68.7041 20.1478 68.7874 20.0116C68.8781 19.8831 68.9235 19.694 68.9235 19.4444V12.9774H70.1488V19.4557C70.1488 20.1213 69.9862 20.5978 69.661 20.8852C69.3357 21.1802 68.9273 21.3277 68.4357 21.3277ZM74.3366 18.9452C73.7391 18.9452 73.2134 18.809 72.7596 18.5367C72.3058 18.2644 71.9502 17.8976 71.6931 17.4362C71.4359 16.9748 71.3074 16.4529 71.3074 15.8705C71.3074 15.2957 71.4359 14.7776 71.6931 14.3162C71.9502 13.8473 72.3058 13.4766 72.7596 13.2044C73.2134 12.9321 73.7391 12.7959 74.3366 12.7959C74.9266 12.7959 75.4485 12.9321 75.9023 13.2044C76.3561 13.4766 76.7116 13.8473 76.9688 14.3162C77.2259 14.7776 77.3545 15.2957 77.3545 15.8705C77.3545 16.4529 77.2259 16.9748 76.9688 17.4362C76.7116 17.8976 76.3561 18.2644 75.9023 18.5367C75.4485 18.809 74.9266 18.9452 74.3366 18.9452ZM74.3366 17.822C74.6543 17.822 74.9493 17.7463 75.2216 17.595C75.4939 17.4362 75.7132 17.2131 75.8796 16.9257C76.0535 16.6307 76.1405 16.279 76.1405 15.8705C76.1405 15.4621 76.0535 15.1141 75.8796 14.8268C75.7132 14.5318 75.4939 14.3086 75.2216 14.1574C74.9493 13.9985 74.6543 13.9191 74.3366 13.9191C74.0189 13.9191 73.7201 13.9985 73.4403 14.1574C73.168 14.3086 72.9449 14.5318 72.7709 14.8268C72.6045 15.1141 72.5213 15.4621 72.5213 15.8705C72.5213 16.279 72.6045 16.6307 72.7709 16.9257C72.9449 17.2131 73.168 17.4362 73.4403 17.595C73.7201 17.7463 74.0189 17.822 74.3366 17.822ZM80.5265 18.9452C79.8155 18.9452 79.2785 18.7333 78.9155 18.3098C78.56 17.8787 78.3822 17.2963 78.3822 16.5626V12.9774H79.6075V16.3924C79.6075 16.884 79.721 17.2471 79.9479 17.4816C80.1824 17.7085 80.4736 17.822 80.8215 17.822C81.1316 17.822 81.4001 17.7425 81.627 17.5837C81.8615 17.4173 82.0392 17.2055 82.1603 16.9484C82.2888 16.6837 82.3531 16.3962 82.3531 16.0861V12.9774H83.5671V18.7636H82.4212V17.9808H82.3531C82.1867 18.2531 81.9371 18.4837 81.6043 18.6729C81.2791 18.8544 80.9199 18.9452 80.5265 18.9452ZM85.6769 17.0845V14.0439H84.6672V12.9774H85.6769V11.3437H86.9022V12.9774H88.3201V14.0439H86.9022V16.8236C86.9022 17.1109 86.959 17.3303 87.0724 17.4816C87.1935 17.6328 87.3941 17.7085 87.6734 17.7085C87.8174 17.7085 87.9387 17.6896 88.0364 17.6518C88.1429 17.614 88.2485 17.561 88.3541 17.4929V18.6842C88.2258 18.7372 88.0897 18.7787 87.9457 18.809C87.8025 18.8393 87.6324 18.8544 87.4351 18.8544C86.8985 18.8544 86.4711 18.6993 86.1534 18.3892C85.8358 18.0716 85.6769 17.6367 85.6769 17.0845ZM91.9183 18.9452C91.351 18.9452 90.844 18.8128 90.398 18.5481C89.9512 18.2834 89.5995 17.9203 89.3429 17.4589C89.0933 16.9975 88.9685 16.4718 88.9685 15.8819C88.9685 15.3297 89.0889 14.8192 89.3316 14.3502C89.5733 13.8813 89.9102 13.5069 90.3413 13.227C90.7794 12.9397 91.283 12.7959 91.8503 12.7959C92.4472 12.7959 92.9543 12.9245 93.3705 13.1817C93.7938 13.4389 94.115 13.7906 94.3349 14.2368C94.554 14.683 94.6639 15.1861 94.6639 15.7457C94.6639 15.8289 94.6596 15.9046 94.6526 15.9726C94.6526 16.0407 94.6482 16.0937 94.6412 16.1315H90.1711C90.2313 16.7063 90.4321 17.1375 90.7724 17.4249C91.1198 17.7123 91.5134 17.856 91.9524 17.856C92.3451 17.856 92.6706 17.769 92.9281 17.595C93.1847 17.4135 93.3889 17.1904 93.5407 16.9257L94.5505 17.4135C94.3009 17.8673 93.9605 18.238 93.5294 18.5254C93.0982 18.8053 92.5606 18.9452 91.9183 18.9452ZM91.8616 13.8397C91.4532 13.8397 91.1049 13.9645 90.8178 14.2141C90.5298 14.4637 90.3369 14.7965 90.2392 15.2125H93.45C93.4343 15.0159 93.3705 14.8117 93.2571 14.5998C93.1436 14.388 92.9691 14.2103 92.7352 14.0666C92.5083 13.9154 92.2168 13.8397 91.8616 13.8397ZM95.8002 18.7636V12.9774H96.9575V13.8284H97.0255C97.1538 13.5334 97.3737 13.2914 97.6836 13.1022C98.0012 12.9056 98.3416 12.8073 98.7047 12.8073C98.8635 12.8073 98.9961 12.8186 99.1017 12.8413C99.2152 12.864 99.3173 12.8904 99.4081 12.9207V14.1914C99.2641 14.1309 99.1166 14.0817 98.9656 14.0439C98.8216 14.0061 98.6706 13.9872 98.5118 13.9872C98.2247 13.9872 97.9672 14.0666 97.7403 14.2254C97.5212 14.3767 97.3467 14.5847 97.2184 14.8494C97.0901 15.1066 97.0255 15.3903 97.0255 15.7004V18.7636H95.8002ZM104.817 18.9452C104.401 18.9452 104.031 18.8657 103.705 18.7069C103.38 18.5405 103.127 18.3098 102.945 18.0148C102.764 17.7198 102.673 17.3832 102.673 17.0051C102.673 16.5966 102.779 16.2487 102.991 15.9613C103.21 15.6663 103.501 15.4432 103.864 15.2919C104.227 15.1407 104.628 15.065 105.067 15.065C105.43 15.065 105.748 15.099 106.02 15.1671C106.3 15.2352 106.511 15.307 106.655 15.3827V15.0764C106.655 14.6982 106.519 14.3956 106.247 14.1687C105.974 13.9418 105.623 13.8284 105.192 13.8284C104.897 13.8284 104.617 13.8964 104.352 14.0326C104.088 14.1611 103.876 14.3389 103.717 14.5658L102.877 13.9191C103.127 13.5712 103.456 13.2989 103.864 13.1022C104.281 12.898 104.734 12.7959 105.226 12.7959C106.065 12.7959 106.712 13.0039 107.166 13.4199C107.62 13.8284 107.846 14.4032 107.846 15.1444V18.7636H106.655V18.0489H106.587C106.436 18.2834 106.209 18.4913 105.906 18.6729C105.604 18.8544 105.241 18.9452 104.817 18.9452ZM105.033 17.9468C105.35 17.9468 105.631 17.8711 105.872 17.7198C106.114 17.5686 106.303 17.3719 106.44 17.1299C106.584 16.8803 106.655 16.6117 106.655 16.3244C106.482 16.226 106.277 16.1466 106.043 16.0861C105.808 16.018 105.558 15.984 105.294 15.984C104.795 15.984 104.439 16.0861 104.227 16.2903C104.015 16.4869 103.91 16.729 103.91 17.0164C103.91 17.2887 104.012 17.5119 104.216 17.6858C104.42 17.8597 104.692 17.9468 105.033 17.9468ZM111.295 18.9452C110.583 18.9452 110.047 18.7333 109.684 18.3098C109.327 17.8787 109.15 17.2963 109.15 16.5626V12.9774H110.376V16.3924C110.376 16.884 110.489 17.2471 110.716 17.4816C110.95 17.7085 111.241 17.822 111.59 17.822C111.899 17.822 112.168 17.7425 112.395 17.5837C112.629 17.4173 112.807 17.2055 112.928 16.9484C113.057 16.6837 113.121 16.3962 113.121 16.0861V12.9774H114.335V18.7636H113.189V17.9808H113.121C112.955 18.2531 112.705 18.4837 112.372 18.6729C112.047 18.8544 111.687 18.9452 111.295 18.9452Z" fill="white"/>
<path d="M66.4495 36.4556C65.6879 36.4556 64.9708 36.3171 64.2982 36.0402C63.6356 35.7632 63.047 35.3775 62.5327 34.8829C62.0184 34.3785 61.6128 33.79 61.3161 33.1174C61.0293 32.4349 60.8859 31.6981 60.8859 30.9068C60.8859 30.1155 61.0293 29.3836 61.3161 28.711C61.6128 28.0285 62.0134 27.44 62.5179 26.9455C63.0322 26.441 63.6256 26.0503 64.2982 25.7734C64.9708 25.4965 65.6879 25.358 66.4495 25.358C67.2605 25.358 68.0073 25.5014 68.6898 25.7882C69.3821 26.0751 69.9607 26.4757 70.4256 26.99L69.2981 28.1027C68.9519 27.717 68.5365 27.4202 68.0518 27.2125C67.5771 27.0048 67.043 26.901 66.4495 26.901C65.7472 26.901 65.0994 27.0691 64.5059 27.4054C63.9125 27.7318 63.4327 28.1967 63.0668 28.8C62.7107 29.3935 62.5327 30.0957 62.5327 30.9068C62.5327 31.7178 62.7157 32.4251 63.0816 33.0284C63.4476 33.6218 63.9273 34.0867 64.5208 34.423C65.1142 34.7494 65.7621 34.9126 66.4643 34.9126C67.1073 34.9126 67.6908 34.7939 68.215 34.5565C68.7393 34.3093 69.1596 33.9631 69.4761 33.518C69.8025 33.0729 70.0004 32.5388 70.0696 31.9156H66.4347V30.4765H71.5977C71.6571 30.7436 71.6867 31.0255 71.6867 31.3222V31.337C71.6867 32.3657 71.4592 33.2658 71.0043 34.0372C70.5592 34.7989 69.941 35.3923 69.1497 35.8176C68.3584 36.2429 67.4584 36.4556 66.4495 36.4556ZM76.464 36.4556C75.6825 36.4556 74.9952 36.2775 74.4017 35.9215C73.8083 35.5654 73.3433 35.0857 73.0071 34.4823C72.6707 33.879 72.5026 33.1965 72.5026 32.4349C72.5026 31.6832 72.6707 31.0057 73.0071 30.4023C73.3433 29.7891 73.8083 29.3044 74.4017 28.9484C74.9952 28.5923 75.6825 28.4143 76.464 28.4143C77.2355 28.4143 77.9179 28.5923 78.5114 28.9484C79.1048 29.3044 79.5696 29.7891 79.906 30.4023C80.2423 31.0057 80.4104 31.6832 80.4104 32.4349C80.4104 33.1965 80.2423 33.879 79.906 34.4823C79.5696 35.0857 79.1048 35.5654 78.5114 35.9215C77.9179 36.2775 77.2355 36.4556 76.464 36.4556ZM76.464 34.9868C76.8794 34.9868 77.2651 34.8879 77.6212 34.69C77.9773 34.4823 78.2641 34.1906 78.4817 33.8147C78.7091 33.429 78.8229 32.969 78.8229 32.4349C78.8229 31.9008 78.7091 31.4459 78.4817 31.07C78.2641 30.6842 77.9773 30.3925 77.6212 30.1946C77.2651 29.9869 76.8794 29.8831 76.464 29.8831C76.0485 29.8831 75.6578 29.9869 75.2919 30.1946C74.9358 30.3925 74.644 30.6842 74.4165 31.07C74.1989 31.4459 74.0901 31.9008 74.0901 32.4349C74.0901 32.969 74.1989 33.429 74.4165 33.8147C74.644 34.1906 74.9358 34.4823 75.2919 34.69C75.6578 34.8879 76.0485 34.9868 76.464 34.9868ZM85.4469 36.4556C84.6655 36.4556 83.9781 36.2775 83.3846 35.9215C82.7911 35.5654 82.3263 35.0857 81.99 34.4823C81.6537 33.879 81.4855 33.1965 81.4855 32.4349C81.4855 31.6832 81.6537 31.0057 81.99 30.4023C82.3263 29.7891 82.7911 29.3044 83.3846 28.9484C83.9781 28.5923 84.6655 28.4143 85.4469 28.4143C86.2183 28.4143 86.9008 28.5923 87.4944 28.9484C88.0879 29.3044 88.5531 29.7891 88.8891 30.4023C89.2251 31.0057 89.3935 31.6832 89.3935 32.4349C89.3935 33.1965 89.2251 33.879 88.8891 34.4823C88.5531 35.0857 88.0879 35.5654 87.4944 35.9215C86.9008 36.2775 86.2183 36.4556 85.4469 36.4556ZM85.4469 34.9868C85.8623 34.9868 86.248 34.8879 86.6041 34.69C86.9602 34.4823 87.247 34.1906 87.4648 33.8147C87.6926 33.429 87.806 32.969 87.806 32.4349C87.806 31.9008 87.6926 31.4459 87.4648 31.07C87.247 30.6842 86.9602 30.3925 86.6041 30.1946C86.248 29.9869 85.8623 29.8831 85.4469 29.8831C85.0314 29.8831 84.6408 29.9869 84.2748 30.1946C83.9187 30.3925 83.627 30.6842 83.3994 31.07C83.1819 31.4459 83.073 31.9008 83.073 32.4349C83.073 32.969 83.1819 33.429 83.3994 33.8147C83.627 34.1906 83.9187 34.4823 84.2748 34.69C84.6408 34.8879 85.0314 34.9868 85.4469 34.9868ZM94.2816 39.6602C93.6184 39.6602 93.045 39.5514 92.5606 39.3338C92.0859 39.1261 91.7001 38.8541 91.4034 38.5178C91.1067 38.1914 90.8937 37.8552 90.7654 37.509L92.2491 36.8858C92.407 37.2814 92.6592 37.6029 93.0057 37.8502C93.3618 38.1074 93.7868 38.2359 94.2816 38.2359C94.9737 38.2359 95.5174 38.0282 95.9136 37.6128C96.3186 37.1974 96.5219 36.6089 96.5219 35.8473V35.1203H96.4329C96.1955 35.4764 95.8639 35.7632 95.4389 35.9808C95.0235 36.1885 94.5487 36.2924 94.0146 36.2924C93.3714 36.2924 92.7832 36.1292 92.2491 35.8028C91.715 35.4764 91.2847 35.0214 90.9583 34.4378C90.6319 33.8444 90.4687 33.152 90.4687 32.3607C90.4687 31.5596 90.6319 30.8672 90.9583 30.2836C91.2847 29.6902 91.715 29.2303 92.2491 28.9039C92.7832 28.5775 93.3714 28.4143 94.0146 28.4143C94.5487 28.4143 95.0235 28.5231 95.4389 28.7407C95.8639 28.9582 96.1955 29.2451 96.4329 29.6012H96.5219V28.6516H98.0501V35.8176C98.0501 36.6386 97.8869 37.3359 97.5605 37.9095C97.2437 38.4832 96.8038 38.9184 96.2401 39.2151C95.6763 39.5119 95.0235 39.6602 94.2816 39.6602ZM94.2965 34.8384C94.6918 34.8384 95.0575 34.7444 95.3944 34.5565C95.7304 34.3587 96.0027 34.0768 96.2104 33.7108C96.4181 33.335 96.5219 32.885 96.5219 32.3607C96.5219 31.8168 96.4181 31.3617 96.2104 30.9958C96.0027 30.6199 95.7304 30.338 95.3944 30.1501C95.0575 29.9622 94.6918 29.8682 94.2965 29.8682C93.9003 29.8682 93.5294 29.9671 93.1838 30.165C92.8469 30.3529 92.5755 30.6299 92.3678 30.9958C92.16 31.3617 92.0562 31.8168 92.0562 32.3607C92.0562 32.8948 92.16 33.3498 92.3678 33.7257C92.5755 34.0916 92.8469 34.3686 93.1838 34.5565C93.5294 34.7444 93.9003 34.8384 94.2965 34.8384ZM99.9395 36.2182V25.5954H101.542V36.2182H99.9395ZM106.815 36.4556C106.073 36.4556 105.411 36.2825 104.827 35.9363C104.244 35.5901 103.784 35.1153 103.447 34.512C103.121 33.9087 102.957 33.2212 102.957 32.4498C102.957 31.7277 103.116 31.0601 103.432 30.4468C103.749 29.8336 104.189 29.344 104.753 28.978C105.327 28.6022 105.984 28.4143 106.726 28.4143C107.508 28.4143 108.17 28.5824 108.714 28.9187C109.268 29.255 109.689 29.7149 109.975 30.2985C110.262 30.8821 110.405 31.5398 110.405 32.2717C110.405 32.3805 110.401 32.4794 110.39 32.5684C110.39 32.6575 110.386 32.7267 110.376 32.7762H104.53C104.61 33.5278 104.871 34.0916 105.316 34.4675C105.772 34.8434 106.286 35.0313 106.859 35.0313C107.374 35.0313 107.799 34.9176 108.135 34.69C108.472 34.4527 108.739 34.1609 108.936 33.8147L110.257 34.4527C109.931 35.0461 109.485 35.5307 108.922 35.9066C108.358 36.2726 107.656 36.4556 106.815 36.4556ZM106.741 29.7792C106.207 29.7792 105.752 29.9424 105.376 30.2688C105 30.5952 104.748 31.0304 104.619 31.5744H108.818C108.799 31.3172 108.714 31.0502 108.566 30.7732C108.417 30.4963 108.19 30.2638 107.883 30.0759C107.586 29.8781 107.206 29.7792 106.741 29.7792ZM116.927 36.2182L114.079 25.5954H115.889L117.58 32.4943L117.758 33.4141H117.847L118.07 32.4943L120.206 25.5954H121.838L123.885 32.4943L124.108 33.3993H124.197L124.375 32.4943L126.066 25.5954H127.862L125.058 36.2182H123.336L121.304 29.1709L121.067 28.1769H120.978L120.725 29.1709L118.604 36.2182H116.927ZM130.841 36.4556C130.297 36.4556 129.812 36.3517 129.387 36.144C128.962 35.9264 128.63 35.6247 128.393 35.239C128.156 34.8532 128.037 34.4131 128.037 33.9186C128.037 33.3844 128.176 32.9295 128.452 32.5536C128.74 32.1679 129.12 31.8761 129.595 31.6783C130.07 31.4804 130.594 31.3815 131.167 31.3815C131.642 31.3815 132.058 31.426 132.414 31.5151C132.779 31.6041 133.057 31.6981 133.245 31.797V31.3964C133.245 30.9018 133.067 30.5062 132.71 30.2095C132.354 29.9127 131.894 29.7644 131.331 29.7644C130.945 29.7644 130.579 29.8534 130.233 30.0314C129.886 30.1996 129.61 30.432 129.402 30.7287L128.304 29.8831C128.63 29.4281 129.061 29.072 129.595 28.8148C130.139 28.5478 130.732 28.4143 131.375 28.4143C132.473 28.4143 133.319 28.6863 133.912 29.2303C134.506 29.7644 134.802 30.5161 134.802 31.4854V36.2182H133.245V35.2835H133.156C132.957 35.5901 132.661 35.8621 132.265 36.0995C131.87 36.3369 131.395 36.4556 130.841 36.4556ZM131.123 35.15C131.538 35.15 131.904 35.0511 132.221 34.8532C132.538 34.6554 132.785 34.3983 132.963 34.0818C133.15 33.7554 133.245 33.4043 133.245 33.0284C133.017 32.8998 132.75 32.796 132.443 32.7168C132.137 32.6278 131.811 32.5833 131.464 32.5833C130.811 32.5833 130.346 32.7168 130.07 32.9839C129.793 33.2411 129.654 33.5575 129.654 33.9334C129.654 34.2895 129.788 34.5812 130.055 34.8087C130.322 35.0363 130.678 35.15 131.123 35.15ZM136.581 36.2182V25.5954H138.183V36.2182H136.581ZM140.088 36.2182V25.5954H141.69V36.2182H140.088ZM146.963 36.4556C146.221 36.4556 145.559 36.2825 144.975 35.9363C144.392 35.5901 143.932 35.1153 143.595 34.512C143.269 33.9087 143.106 33.2212 143.106 32.4498C143.106 31.7277 143.264 31.0601 143.58 30.4468C143.897 29.8336 144.337 29.344 144.901 28.978C145.475 28.6022 146.132 28.4143 146.874 28.4143C147.656 28.4143 148.318 28.5824 148.862 28.9187C149.416 29.255 149.837 29.7149 150.123 30.2985C150.41 30.8821 150.553 31.5398 150.553 32.2717C150.553 32.3805 150.549 32.4794 150.539 32.5684C150.539 32.6575 150.534 32.7267 150.524 32.7762H144.678C144.758 33.5278 145.019 34.0916 145.464 34.4675C145.92 34.8434 146.434 35.0313 147.007 35.0313C147.522 35.0313 147.947 34.9176 148.283 34.69C148.62 34.4527 148.887 34.1609 149.085 33.8147L150.405 34.4527C150.079 35.0461 149.634 35.5307 149.07 35.9066C148.506 36.2726 147.804 36.4556 146.963 36.4556ZM146.889 29.7792C146.355 29.7792 145.9 29.9424 145.524 30.2688C145.149 30.5952 144.896 31.0304 144.767 31.5744H148.966C148.947 31.3172 148.862 31.0502 148.714 30.7732C148.565 30.4963 148.338 30.2638 148.031 30.0759C147.734 29.8781 147.354 29.7792 146.889 29.7792ZM152.624 34.0224V30.0463H151.304V28.6516H152.624V26.5152H154.227V28.6516H156.081V30.0463H154.227V33.6812C154.227 34.0571 154.301 34.3438 154.449 34.5417C154.607 34.7395 154.869 34.8384 155.236 34.8384C155.423 34.8384 155.581 34.8137 155.71 34.7642C155.848 34.7147 155.987 34.6455 156.126 34.5565V36.1143C155.957 36.1835 155.779 36.238 155.592 36.2775C155.403 36.3171 155.181 36.3369 154.924 36.3369C154.221 36.3369 153.663 36.1341 153.247 35.7286C152.832 35.3132 152.624 34.7444 152.624 34.0224Z" fill="white"/>
<path d="M149.673 0.43634H24C10.9862 0.43634 0.436401 10.9861 0.436401 24C0.436401 37.0138 10.9862 47.5636 24 47.5636H149.673C162.687 47.5636 173.236 37.0138 173.236 24C173.236 10.9861 162.687 0.43634 149.673 0.43634Z" stroke="#747775"/>
</g>
<defs>
<linearGradient id="paint0_linear_4851_582" x1="32.539" y1="29.7118" x2="16.3918" y2="48.6307" gradientUnits="userSpaceOnUse">
<stop stop-color="#4285F4"/>
<stop offset="1" stop-color="#1B74E8"/>
</linearGradient>
<clipPath id="clip0_4851_582">
<rect width="173.673" height="48" fill="white"/>
</clipPath>
</defs>
</svg>
