<svg width="1200" height="630" xmlns="http://www.w3.org/2000/svg">
  <defs>
    <linearGradient id="bg" x1="0%" y1="0%" x2="100%" y2="100%">
      <stop offset="0%" style="stop-color:#faf8f5"/>
      <stop offset="100%" style="stop-color:#f5f0eb"/>
    </linearGradient>
  </defs>
  <rect width="1200" height="630" fill="url(#bg)"/>
  <!-- Decorative circles -->
  <circle cx="100" cy="100" r="80" fill="#f97316" opacity="0.08"/>
  <circle cx="1100" cy="530" r="120" fill="#f97316" opacity="0.06"/>
  <circle cx="900" cy="80" r="60" fill="#f97316" opacity="0.05"/>
  <!-- Stamp logo -->
  <g transform="translate(540, 180) scale(2.5)">
    <path clip-rule="evenodd" d="M12.0799 24L4 19.2479L9.95537 8.75216L18.04 13.4961L18.0446 4H29.9554L29.96 13.4961L38.0446 8.75216L44 19.2479L35.92 24L44 28.7521L38.0446 39.2479L29.96 34.5039L29.9554 44H18.0446L18.04 34.5039L9.95537 39.2479L4 28.7521L12.0799 24Z" fill="#f97316" fill-rule="evenodd"/>
  </g>
  <!-- Stampeo text -->
  <text x="600" y="420" font-family="system-ui, -apple-system, sans-serif" font-size="72" font-weight="800" fill="#1a1a1a" text-anchor="middle">Stampeo</text>
  <!-- Tagline -->
  <text x="600" y="480" font-family="system-ui, -apple-system, sans-serif" font-size="28" fill="#71717a" text-anchor="middle">Digital loyalty cards for Apple Wallet &amp; Google Wallet</text>
  <!-- Bottom accent line -->
  <rect x="450" y="520" width="300" height="4" rx="2" fill="#f97316"/>
</svg>
